<?xml version="1.0" standalone="no"?><!DOCTYPE svg PUBLIC "-//W3C//DTD SVG 1.1//EN" "http://www.w3.org/Graphics/SVG/1.1/DTD/svg11.dtd" ><svg xmlns="http://www.w3.org/2000/svg"><metadata></metadata><defs><font id="JuanMontoreano: Lilita One: 2011" horiz-adv-x="1006"><font-face font-family="Lilita One" font-weight="400" font-stretch="normal" units-per-em="1000" panose-1="2 0 0 0 0 0 0 0 0 0" ascent="923" descent="-220" x-height="0" bbox="-118 -220 953 923" underline-thickness="50" underline-position="-75" unicode-range="U+0020-fb02" /><missing-glyph horiz-adv-x="199"  /><glyph glyph-name="space" unicode=" " d="" /><glyph glyph-name="exclam" unicode="!" d="M210 210 q0 -6 -71.5 -6 q-71.5 0 -71.5 5 l-20 493 q0 8 91.5 8 q91.5 0 91.5 -7 l-20 -493 ZM45 150 q0 7 92.5 7 q92.5 0 92.5 -6 l0 -144 q0 -10 -92.5 -10 q-92.5 0 -92.5 6 l0 147 Z" /><glyph glyph-name="quotedbl" unicode="&quot;" d="M208 663 l0 -211 q0 -18 -28 -26 q-14 -4 -28 -4 q-14 0 -28 4 q-29 8 -29 26 l-30 211 q0 18 35 26 q18 4 36 4 q18 0 36 -4 q36 -8 36 -26 ZM340 426 q-14 -4 -28 -4 q-14 0 -28 4 q-29 8 -29 26 l0 211 q0 18 35 26 q18 4 36 4 q18 0 36 -4 q36 -8 36 -26 l-30 -211 q0 -18 -28 -26 Z" /><glyph glyph-name="numbersign" unicode="#" d="M704 300 q18 0 26 -29 q5 -16 5 -30.5 q0 -14.5 -3 -27.5 q-7 -29 -26 -29 l-150 -1 l-57 -169 q-6 -15 -30 -15 q-21 0 -44 11 q-46 22 -35 45 l43 128 l-116 0 l-57 -168 q-5 -14 -28 -14 q-23 0 -46 11 q-46 22 -35 45 l42 126 l-75 0 q-11 0 -18 12 q-9 14 -9 33 q0 19 2 34 q2 15 10.5 26.5 q8.5 11.5 19.5 10.5 l110 0 l35 104 l-114 0 q-11 0 -18 12 q-9 14 -9 33 q0 19 2 34 q2 15 10.5 26.5 q8.5 11.5 19.5 10.5 l148 0 l50 147 q6 16 32 16 q20 0 43 -10 q45 -20 37 -41 l-38 -112 l116 0 l49 146 q8 22 49 13 q42 -8 58 -28 q9 -11 5 -21 l-37 -109 l69 0 q18 0 26 -29 q5 -16 5 -30.5 q0 -14.5 -3 -27.5 q-7 -29 -26 -29 l-111 0 l-35 -104 l108 0 ZM384 412 l-41 -122 l136 0 l41 122 l-136 0 Z" /><glyph glyph-name="dollar" unicode="$" d="M303 767 l0 -57 q74 -3 128 -20.5 q54 -17.5 54 -52.5 q0 -31 -20.5 -82 q-20.5 -51 -28.5 -54 q-84 35 -133 39 l0 -113 q210 -8 210 -202 q0 -91 -52 -156 q-52 -65 -158 -76 l0 -69 q0 -18 -10.5 -24 q-10.5 -6 -17.5 -6 l-14 4 q-14 8 -14 26 l0 66 q-84 2 -148.5 30 q-64.5 28 -64.5 71 q0 56 34 113 q3 6 8 13 q81 -49 171 -55 l0 110 q-213 13 -213 218 q0 90 57 148 q57 58 156 70 l0 59 q0 18 10.5 24 q10.5 6 17.5 6 l14 -4 q14 -8 14 -26 ZM374 230 q0 23 -15.5 31.5 q-15.5 8.5 -55.5 10.5 l0 -108 q71 12 71 66 ZM186 479 q0 -42 61 -49 l0 109 q-61 -10 -61 -60 Z" /><glyph glyph-name="uni0025" unicode="%" d="M186.5 711 q67.5 0 110.5 -49 q43 -49 43 -143.5 q0 -94.5 -42.5 -143.5 q-42.5 -49 -109.5 -49 q-67 0 -110 47.5 q-43 47.5 -43 144 q0 96.5 42 145 q42 48.5 109.5 48.5 ZM235 519 q0 65 -47 65 q-47 0 -47 -65 q0 -31 13 -47 q13 -16 34 -16 q21 0 34 16 q13 16 13 47 ZM599.5 377 q67.5 0 110.5 -49 q43 -49 43 -143.5 q0 -94.5 -42.5 -143.5 q-42.5 -49 -109.5 -49 q-67 0 -110 47.5 q-43 47.5 -43 144 q0 96.5 42 145 q42 48.5 109.5 48.5 ZM648 185 q0 65 -47 65 q-47 0 -47 -65 q0 -31 13 -47 q13 -16 34 -16 q21 0 34 16 q13 16 13 47 ZM578 702 q9 8 19 8 q37 0 67 -37 q12 -15 12 -24.5 q0 -9.5 -4 -14.5 l-475 -636 q-9 -8 -19 -8 q-36 0 -66 38 q-13 15 -13 24 q0 9 4 14 l475 636 Z" /><glyph glyph-name="ampersand" unicode="&amp;" d="M349 489 l1 10 q0 25 -16.5 40 q-16.5 15 -40.5 15 q-24 0 -40 -16 q-16 -16 -16 -44 q0 -76 107 -76 q24 0 54 4 q197 25 199 25 q28 0 28 -57 q0 -46 -19 -91 l-102 -12 q26 -63 26 -114 q0 -79 -60.5 -131 q-60.5 -52 -176 -52 q-115.5 0 -182.5 56.5 q-67 56.5 -67 145 q0 88.5 85 151.5 q-63 70 -63 162 q0 92 64 148.5 q64 56.5 166 56.5 q102 0 161.5 -50 q59.5 -50 59.5 -135 q0 -17 -32.5 -33 q-32.5 -16 -77.5 -16 q-45 0 -58 13 ZM239 285 q-11 -29 -11 -51.5 q0 -22.5 7 -39.5 q16 -39 64 -39 q34 0 49.5 24.5 q15.5 24.5 15.5 61.5 q0 17 -1 25.5 q-1 8.5 -1 10.5 q-34 -6 -67 -6 q-33 0 -56 14 Z" /><glyph glyph-name="quotesingle" unicode="&#39;" d="M174 426 q-14 -4 -28 -4 q-14 0 -28 4 q-28 8 -28 26 l-20 211 q0 18 38 26 q19 4 38 4 q19 0 38 -4 q39 -8 39 -26 l-20 -211 q0 -18 -29 -26 Z" /><glyph glyph-name="parenleft" unicode="(" d="M190 676 q11 20 34 20 q35 0 58 -9 q23 -9 34.5 -13.5 q11.5 -4.5 24.5 -12.5 q-48 -106 -71.5 -183 q-23.5 -77 -23.5 -167 q1 -173 98 -339 q-10 -10 -38.5 -23 q-28.5 -13 -44 -17.5 q-15.5 -4.5 -25.5 -4.5 q-36 0 -50 29 q-91 184 -91 365 q0 181 95 355 Z" /><glyph glyph-name="parenright" unicode=")" d="M249 676 q95 -174 95 -355 q0 -181 -91 -365 q-15 -29 -50 -29 q-21 0 -52 14 q-46 21 -56 31 q97 166 98 339 q0 90 -23.5 167 q-23.5 77 -71.5 183 q0 2 33 16 q47 20 75 20 q28 0 43 -21 Z" /><glyph glyph-name="asterisk" unicode="*" d="M326 549 q121 23 131.5 23 q10.5 0 20.5 -18 q10 -18 10 -30 q0 -38 -23 -40 l-115 -14 l74 -114 q14 -34 -41 -54 q-10 -3 -16 -3 q-20 0 -25 10 l-59 113 l-54 -113 q-6 -8 -15.5 -8 q-9.5 0 -24 3 q-14.5 3 -29.5 18 q-15 15 -15 23.5 q0 8.5 4 13.5 l70 111 q-83 11 -115 14 q-23 1 -23 33 q0 18 10 36.5 q10 18.5 25 18.5 l125 -23 l-4 119 q-1 17 23 24 q12 4 24 4 q12 0 24 -4 q23 -7 22 -24 l-4 -119 Z" /><glyph glyph-name="plus" unicode="+" d="M353 574 l0 -168 l169 0 q18 0 26 -29 q4 -15 4 -29 q0 -14 -4 -29 q-8 -29 -26 -29 l-169 0 l0 -171 q0 -18 -29 -26 q-14 -4 -29 -4 l-29 4 q-29 8 -29 26 l0 171 l-170 0 q-18 0 -26 29 q-4 15 -4 29 q0 14 4 29 q8 29 26 29 l170 0 l0 168 q0 18 29 26 q14 4 29 4 l29 -4 q29 -8 29 -26 Z" /><glyph glyph-name="comma" unicode="," d="M120 148 q6 16 85 16 q79 0 79 -21 l-2 -85 l-58 -136 q-13 -29 -80.5 -29 q-67.5 0 -85.5 22 q-4 5 -4 9.5 q0 4.5 1 8.5 l61 124 l4 91 Z" /><glyph glyph-name="hyphen" unicode="-" d="M460 190 l-395 0 q-18 0 -26 29 q-4 15 -4 29 q0 14 4 29 q8 29 26 29 l395 0 q18 0 26 -29 q4 -15 4 -29 q0 -14 -4 -29 q-8 -29 -26 -29 Z" /><glyph glyph-name="period" unicode="." d="M209 -3 q0 -7 -94.5 -7 q-94.5 0 -94.5 6 l0 180 q0 9 94.5 9 q94.5 0 94.5 -5 l0 -183 Z" /><glyph glyph-name="slash" unicode="/" d="M470 775 q5 11 19.5 11 q14.5 0 30.5 -7 q37 -17 48 -40 q4 -7 4 -13 q0 -6 -2 -10 l-467 -811 q-6 -10 -21 -10 q-15 0 -30 7 q-38 18 -49 40 q-3 6 -3 11.5 q0 5.5 3 10.5 l467 811 Z" /><glyph glyph-name="zero" unicode="0" d="M319.5 -10 q-125.5 0 -205 92 q-79.5 92 -79.5 269 q0 177 80 267.5 q80 90.5 206.5 90.5 q126.5 0 204.5 -90 q78 -90 78 -271 q0 -181 -79.5 -269.5 q-79.5 -88.5 -205 -88.5 ZM319.5 517 q-38.5 0 -65 -43.5 q-26.5 -43.5 -26.5 -123.5 q0 -80 25.5 -122.5 q25.5 -42.5 66 -42.5 q40.5 0 66 43 q25.5 43 25.5 123 q0 80 -26.5 123 q-26.5 43 -65 43 Z" /><glyph glyph-name="one" unicode="1" d="M356 17 q0 -17 -101.5 -17 q-101.5 0 -101.5 17 l0 493 l-108 -1 q-30 0 -30 96 q0 33 6.5 64 q6.5 31 22.5 31 l274 0 q17 0 27.5 -7.5 q10.5 -7.5 10.5 -18.5 l0 -657 Z" /><glyph glyph-name="two" unicode="2" d="M433 0 l-332 0 q-35 0 -49 68 q-7 37 -7 56 q0 19 6 25 q224 231 224 314 q0 28 -14.5 42 q-14.5 14 -46 14 q-31.5 0 -63 -12 q-31.5 -12 -49.5 -26 q-39 47 -54 99 q-5 17 -5 31.5 q0 14.5 5 27.5 q8 26 74.5 49 q66.5 23 140.5 23 q224 0 224 -199 q0 -88 -60 -178.5 q-60 -90.5 -140 -156.5 l202 8 q5 -53 5 -92 q0 -39 -16 -66 q-16 -27 -45 -27 Z" /><glyph glyph-name="three" unicode="3" d="M20 66 q0 28 14 63.5 q14 35.5 27 57 q13 21.5 15 21.5 q58 -35 122 -35 q40 0 64.5 16 q24.5 16 24.5 44.5 q0 28.5 -22.5 36.5 q-22.5 8 -71.5 11 l-36 0 q-12 0 -22.5 29.5 q-10.5 29.5 -10.5 57.5 q0 47 28 48 l29 1 q27 0 56.5 15.5 q29.5 15.5 29.5 39.5 q0 42 -75 42 q-56 0 -108 -22 q-45 81 -45 126.5 q0 45.5 63.5 68.5 q63.5 23 159.5 23 q96 0 150 -40 q54 -40 54 -109 q0 -121 -104 -186 q126 -51 126 -173 q0 -95 -67 -153.5 q-67 -58.5 -192 -58.5 q-79 0 -144 22.5 q-65 22.5 -65 53.5 Z" /><glyph glyph-name="four" unicode="4" d="M547 299 q10 0 10 -75.5 q0 -75.5 -10 -75.5 l-66 -1 l0 -126 q0 -11 -41 -16 q-41 -5 -71 -5 l-41 2 q-51 4 -51 18 l0 124 l-199 0 q-26 26 -47 67.5 q-21 41.5 -21 60 q0 18.5 6 29.5 l219 388 q4 8 61.5 12 q57.5 4 120.5 4 q63 0 63 -5 l1 -401 l66 0 ZM306 298 l0 209 l-117 -209 l117 0 Z" /><glyph glyph-name="five" unicode="5" d="M427 700 q19 0 19 -83 q0 -26 -4.5 -61.5 q-4.5 -35.5 -16.5 -35.5 l-195 0 l-1 -73 l33 0 q107 0 159.5 -62 q52.5 -62 52.5 -164 q0 -102 -72 -166.5 q-72 -64.5 -185 -64.5 q-113 0 -165 32 q-8 13 -8 40.5 q0 27.5 8 78 q8 50.5 22 50.5 q1 0 6 -4 q71 -29 108.5 -29 q37.5 0 62 20.5 q24.5 20.5 24.5 52.5 q0 80 -86 80 l-86 -1 q-10 -2 -20 8.5 q-10 10.5 -10 27.5 l0 313 q0 41 30 41 l324 0 Z" /><glyph glyph-name="six" unicode="6" d="M427 508 q-40 22 -93 22 q-93 0 -106 -120 q52 15 111 15 q101 0 148.5 -52.5 q47.5 -52.5 47.5 -143.5 q0 -110 -68 -174.5 q-68 -64.5 -184 -64.5 q-116 0 -182 84.5 q-66 84.5 -66 240.5 q0 182 82.5 288.5 q82.5 106.5 214.5 106.5 q150 0 150 -61 q0 -44 -28 -94 q-10 -22 -27 -47 ZM362 228 q0 31 -19 50.5 q-19 19.5 -57.5 19.5 q-38.5 0 -58.5 -14 q-1 -13 -1 -29 q0 -16 3.5 -39.5 q3.5 -23.5 20 -46 q16.5 -22.5 43.5 -22.5 q69 0 69 81 Z" /><glyph glyph-name="seven" unicode="7" d="M313 13 q-5 -16 -106 -16 q-101 0 -113 9 q-4 3 -4 7 l167 490 l-203 0 q-30 0 -30 97 q0 33 6.5 64 q6.5 31 22.5 31 l350 1 q40 0 65 -44 q12 -22 17 -44 l-172 -595 Z" /><glyph glyph-name="eight" unicode="8" d="M538 211 q0 -98 -70.5 -160 q-70.5 -62 -188 -62 q-117.5 0 -185 59.5 q-67.5 59.5 -67.5 156 q0 96.5 97 171.5 q-68 59 -68 142 q0 83 65 137 q65 54 166 54 q101 0 161.5 -50.5 q60.5 -50.5 60 -127 q-0.5 -76.5 -64.5 -138.5 q41 -30 67.5 -77.5 q26.5 -47.5 26.5 -104.5 ZM225 220 q0 -29 17.5 -46.5 q17.5 -17.5 43.5 -17.5 q26 0 42.5 17.5 q16.5 17.5 16.5 46.5 q0 54 -69 89 q-51 -31 -51 -89 ZM333 503 q0 22 -15.5 37 q-15.5 15 -34.5 15 q-51 0 -53 -49 q0 -45 69 -85 q34 38 34 82 Z" /><glyph glyph-name="nine" unicode="9" d="M122 174 q75 -15 113 -15 q38 0 68.5 24 q30.5 24 35.5 75 q-50 -14 -80 -14 q-105 0 -162 58.5 q-57 58.5 -57 166 q0 107.5 65.5 174.5 q65.5 67 179.5 67 q114 0 179.5 -80 q65.5 -80 65.5 -236 q0 -195 -69.5 -299.5 q-69.5 -104.5 -206.5 -104.5 q-170 0 -170 57 q0 30 12 78.5 q12 48.5 26 48.5 ZM283 530 q-32 0 -49.5 -20.5 q-17.5 -20.5 -17.5 -52.5 q0 -32 20.5 -51.5 q20.5 -19.5 52.5 -19.5 q32 0 52 14 q0 69 -13 99.5 q-13 30.5 -45 30.5 Z" /><glyph glyph-name="colon" unicode=":" d="M247 -3 q0 -7 -94.5 -7 q-94.5 0 -94.5 6 l0 180 q0 9 94.5 9 q94.5 0 94.5 -5 l0 -183 ZM247 318 q0 -7 -94.5 -7 q-94.5 0 -94.5 6 l0 180 q0 9 94.5 9 q94.5 0 94.5 -5 l0 -183 Z" /><glyph glyph-name="semicolon" unicode=";" d="M80 148 q6 16 85 16 q79 0 79 -21 l-2 -85 l-58 -136 q-13 -29 -80.5 -29 q-67.5 0 -85.5 22 q-4 5 -4 9.5 q0 4.5 1 8.5 l61 124 l4 91 ZM247 318 q0 -7 -94.5 -7 q-94.5 0 -94.5 6 l0 180 q0 9 94.5 9 q94.5 0 94.5 -5 l0 -183 Z" /><glyph glyph-name="less" unicode="&lt;" d="M294 631 q6 7 17 7 q11 0 32.5 -10 q21.5 -10 35 -28 q13.5 -18 13.5 -26.5 q0 -8.5 -6 -14.5 l-202 -224 l205 -211 q6 -6 6 -14.5 q0 -8.5 -14 -27 q-14 -18.5 -35 -28 q-21 -9.5 -31.5 -9.5 q-10.5 0 -17.5 7 l-231 256 q-14 14 -14 25 q0 11 10 21 l232 277 Z" /><glyph glyph-name="equal" unicode="=" d="M492 160 l-395 0 q-18 0 -26 29 q-4 15 -4 29 q0 14 4 29 q8 29 26 29 l395 0 q18 0 26 -29 q4 -15 4 -29 q0 -14 -4 -29 q-8 -29 -26 -29 ZM492 384 l-395 0 q-18 0 -26 29 q-4 15 -4 29 q0 14 4 29 q8 29 26 29 l395 0 q18 0 26 -29 q4 -15 4 -29 q0 -14 -4 -29 q-8 -29 -26 -29 Z" /><glyph glyph-name="greater" unicode="&gt;" d="M385 354 q10 -10 10 -21 q0 -11 -14 -25 l-231 -256 q-7 -7 -17.5 -7 q-10.5 0 -32 9.5 q-21.5 9.5 -35 28 q-13.5 18.5 -13.5 27 q0 8.5 6 14.5 l205 211 l-202 224 q-6 6 -6 14.5 q0 8.5 13.5 26.5 q13.5 18 35 27.5 q21.5 9.5 32 9.5 q10.5 0 17.5 -6 l232 -277 Z" /><glyph glyph-name="question" unicode="?" d="M227 198 q-79 0 -79 19 l0 38 q0 45 75 115 q28 26 51.5 59 q23.5 33 23.5 60 q0 50 -57.5 50 q-57.5 0 -115.5 -38 q-38 38 -53 86 q-6 16 -6 28.5 q0 12.5 5 23.5 q8 26 74.5 49 q66.5 23 140.5 23 q112 0 168 -48 q56 -48 56 -131 q0 -38 -18.5 -74.5 q-18.5 -36.5 -45 -64 q-26.5 -27.5 -52.5 -51.5 q-63 -60 -63 -91 l0 -30 q0 -12 -37 -17.5 q-37 -5.5 -67 -5.5 ZM325 -4 q0 -6 -82.5 -6 q-82.5 0 -82.5 5 l0 157 q0 8 82.5 8 q82.5 0 82.5 -5 l0 -159 Z" /><glyph glyph-name="at" unicode="@" d="M607 -29 q0 -59 -198 -59 q-171 0 -270.5 88.5 q-99.5 88.5 -99.5 251.5 q0 189 116.5 304.5 q116.5 115.5 306.5 115.5 q147 0 236 -87 q89 -87 89 -219 q0 -132 -61.5 -197 q-61.5 -65 -150.5 -65 q-31 0 -60.5 13 q-29.5 13 -43.5 29 q-47 -41 -111.5 -41 q-64.5 0 -99 34 q-34.5 34 -34.5 103 q0 109 77 184 q77 75 171 75 q79 0 97 -31 q9 -16 9 -33.5 q0 -17.5 -28 -220.5 l42 -2 q16 0 30 12 q14 12 22 27 q21 36 21 109 q0 96 -58 152.5 q-58 56.5 -153 56.5 q-141 0 -223.5 -87 q-82.5 -87 -82.5 -227 q0 -238 285 -238 q88 0 142 18 q5 -5 15 -19 q15 -26 15 -47 ZM435 383 q-22 0 -44.5 -39 q-22.5 -39 -24.5 -91 q0 -37 33 -37 q19 0 27 9 l20 143 q2 15 -11 15 Z" /><glyph glyph-name="A" unicode="A" d="M520 -2 q-87 0 -94 28 l-33 129 l-159 0 l-29 -124 q-6 -31 -96 -31 q-48 0 -71 5.5 q-23 5.5 -23 8.5 l177 677 q0 8 137 8 q137 0 137 -8 l173 -678 q0 -7 -46 -11 q-46 -4 -73 -4 ZM259 282 l105 0 l-45 207 l-6 0 l-54 -207 Z" /><glyph glyph-name="B" unicode="B" d="M541 519 q0 -104 -90 -158 q49 -18 82 -62 q33 -44 33 -124.5 q0 -80.5 -59.5 -127.5 q-59.5 -47 -170.5 -47 l-236 0 q-17 0 -28 11.5 q-11 11.5 -11 30.5 l0 640 q0 11 3.5 14.5 q3.5 3.5 14.5 3.5 l228 0 q234 0 234 -181 ZM253 538 l0 -131 l5 0 q96 0 96 64 q0 35 -18.5 51 q-18.5 16 -61.5 16 l-21 0 ZM253 289 l0 -130 l18 0 q43 0 63 16 q20 16 20 51 q0 35 -18.5 49 q-18.5 14 -61.5 14 l-21 0 Z" /><glyph glyph-name="C" unicode="C" d="M336 709 q73 0 128.5 -20.5 q55.5 -20.5 55.5 -55.5 q0 -35 -26.5 -86.5 q-26.5 -51.5 -44.5 -51.5 q-5 0 -11.5 5.5 q-6.5 5.5 -30 12 q-23.5 6.5 -40.5 6.5 q-58 0 -93.5 -41 q-35.5 -41 -35.5 -125.5 q0 -84.5 36.5 -125.5 q36.5 -41 92.5 -41 q23 0 51.5 6.5 q28.5 6.5 40.5 18.5 q2 2 8 2 q6 0 22.5 -22.5 q16.5 -22.5 30.5 -59 q14 -36.5 14 -56.5 q0 -39 -60 -62 q-60 -23 -142 -23 q-132 0 -217 93 q-85 93 -85 262.5 q0 169.5 87.5 266.5 q87.5 97 218.5 97 Z" /><glyph glyph-name="D" unicode="D" d="M50 46 l0 600 q0 25 12.5 39.5 q12.5 14.5 32.5 14.5 l167 0 q159 0 241.5 -80 q82.5 -80 82.5 -252 q0 -368 -314 -368 l-171 0 q-51 0 -51 46 ZM242 510 l0 -299 q0 -21 3 -26.5 q3 -5.5 18 -5.5 q55 0 83.5 41 q28.5 41 28.5 136.5 q0 95.5 -29.5 124.5 q-29.5 29 -93.5 29 l-10 0 Z" /><glyph glyph-name="E" unicode="E" d="M375 422 q19 0 19 -70 q0 -21 -4.5 -49.5 q-4.5 -28.5 -16.5 -28.5 l-127 0 l0 -100 l184 0 q17 0 23 -44 q3 -19 3 -40.5 q0 -21.5 -6 -55.5 q-6 -34 -20 -34 l-342 0 q-38 0 -38 31 l0 643 q0 26 23 26 l358 0 q21 0 21 -88.5 q0 -88.5 -21 -88.5 l-185 0 l0 -101 l129 0 Z" /><glyph glyph-name="F" unicode="F" d="M424 700 q17 0 17 -88.5 q0 -88.5 -17 -88.5 l-183 0 l0 -114 l122 0 q17 0 17 -77.5 q0 -77.5 -16 -77.5 l-123 0 l0 -241 q0 -14 -37.5 -18.5 q-37.5 -4.5 -62.5 -4.5 l-47 2 q-49 6 -49 20 l0 662 q0 16 6.5 21 q6.5 5 19.5 5 l353 0 Z" /><glyph glyph-name="G" unicode="G" d="M420 209 l2 136 q0 14 29 18.5 q29 4.5 48 4.5 l39 -3 q38 -6 38 -21 l-4 -313 q-20 -14 -80.5 -27.5 q-60.5 -13.5 -138.5 -13.5 q-145 0 -234 94 q-89 94 -89 276 q0 155 87 252 q87 97 241 97 q70 0 126.5 -13.5 q56.5 -13.5 77.5 -36.5 q1 -8 1 -30 q0 -22 -15 -62.5 q-15 -40.5 -34 -60.5 q-19 -20 -27.5 -20 q-8.5 0 -18 7.5 q-9.5 7.5 -37.5 16 q-28 8.5 -54 8.5 q-62 0 -100.5 -40 q-38.5 -40 -38.5 -124 q0 -84 39.5 -127.5 q39.5 -43.5 91 -43.5 q51.5 0 51.5 26 Z" /><glyph glyph-name="H" unicode="H" d="M594 17 q0 -17 -101 -17 q-101 0 -101 17 l0 230 l-140 0 l0 -230 q0 -17 -101 -17 q-101 0 -101 17 l0 663 q0 21 101 21 q101 0 101 -21 l0 -235 l140 0 l0 233 q0 14 50 20 q26 2 51 2 l51 -2 q50 -6 50 -20 l0 -661 Z" /><glyph glyph-name="I" unicode="I" d="M116 172 l0 356 l-71 0 q-17 0 -24 43 q-3 21 -3 43 q0 22 3 43 q7 43 24 43 l336 0 q17 0 23 -43 q4 -21 4 -43 q0 -22 -4 -43 q-6 -43 -23 -43 l-67 0 l0 -356 l70 0 q17 0 24 -43 q4 -21 4 -43 q0 -22 -4 -43 q-7 -43 -24 -43 l-337 0 q-17 0 -23 43 q-4 21 -4 43 q0 22 4 43 q6 43 23 43 l69 0 Z" /><glyph glyph-name="J" unicode="J" d="M9 90 q0 29 17 67.5 q17 38.5 37 52.5 q38 -28 77 -28 l31 5 q54 16 56 86 l0 255 l-80 0 q-17 0 -24 43 q-3 21 -3 43 q0 22 3 43 q7 43 24 43 l238 0 q20 0 30 -11.5 q10 -11.5 10 -27.5 l0 -472 q0 -98 -65.5 -149 q-65.5 -51 -157 -51 q-91.5 0 -142.5 27 q-51 27 -51 74 Z" /><glyph glyph-name="K" unicode="K" d="M250 14 q0 -15 -94 -15 l-56 3 q-50 4 -50 14 l0 671 q0 17 100 17 q100 0 100 -17 l0 -256 l122 256 q7 14 80 14 q133 0 140 -23 q0 -2 -1 -4 l-174 -314 l202 -279 q0 -2 -19 -17 q-46 -40 -108 -63 q-19 -7 -38 -7 l-24 2 q-32 8 -50 41 l-114 218 l-16 0 l0 -241 Z" /><glyph glyph-name="L" unicode="L" d="M40 59 l0 622 q0 21 101.5 21 q101.5 0 101.5 -21 l0 -490 l154 0 q18 0 25 -47 q3 -23 3 -47 q0 -24 -3 -49 q-8 -48 -26 -48 l-308 0 q-22 0 -35 18 q-13 18 -13 41 Z" /><glyph glyph-name="M" unicode="M" d="M750 -1 q-89 0 -89 20 l-21 401 l-122 -406 q-4 -12 -68 -12 q-64 0 -66 11 l-126 411 l-14 -399 q-1 -15 -38 -20.5 q-37 -5.5 -61.5 -5.5 q-24.5 0 -47.5 3 q-48 7 -47 25 l23 650 q0 24 122 24 q36 0 88 -5.5 q52 -5.5 58 -21.5 l112 -315 l98 316 q9 26 138 26 q37 0 88.5 -5.5 q51.5 -5.5 51.5 -19.5 l29 -656 q0 -11 -39 -16 q-39 -5 -69 -5 Z" /><glyph glyph-name="N" unicode="N" d="M598 22 q0 -21 -94 -21 q-94 0 -102 15 l-167 312 l0 -311 q0 -18 -92.5 -18 q-92.5 0 -92.5 18 l0 669 q0 15 79 15 q31 0 72.5 -5.5 q41.5 -5.5 50.5 -20.5 l160 -308 l0 314 q0 19 93 19 q93 0 93 -19 l0 -659 Z" /><glyph glyph-name="O" unicode="O" d="M347.5 -10 q-140.5 0 -229 92 q-88.5 92 -88.5 268.5 q0 176.5 89.5 267.5 q89.5 91 231 91 q141.5 0 228.5 -89.5 q87 -89.5 87 -271 q0 -181.5 -89 -270 q-89 -88.5 -229.5 -88.5 ZM348 517 q-48 0 -80.5 -44 q-32.5 -44 -32.5 -123.5 q0 -79.5 31 -122 q31 -42.5 81.5 -42.5 q50.5 0 82 43 q31.5 43 31.5 123 q0 80 -32.5 123 q-32.5 43 -80.5 43 Z" /><glyph glyph-name="P" unicode="P" d="M137 -2 q-91 0 -91 20 l0 648 q0 34 31 34 l176 0 q148 0 213.5 -61 q65.5 -61 65.5 -177 q0 -96 -62 -176 q-31 -40 -91 -64 q-60 -24 -140 -24 l0 -179 q0 -12 -37.5 -16.5 q-37.5 -4.5 -64.5 -4.5 ZM239 526 l0 -158 l13 0 q35 0 59 22 q24 22 24 62 q0 40 -16.5 57 q-16.5 17 -58.5 17 l-21 0 Z" /><glyph glyph-name="Q" unicode="Q" d="M30 349 q0 178 89.5 269 q89.5 91 231 91 q141.5 0 228.5 -89.5 q87 -89.5 87 -270.5 q0 -139 -54 -224 q-54 -85 -148 -117 l106 -73 q6 -4 6 -14.5 q0 -10.5 -22.5 -39.5 q-22.5 -29 -54 -44.5 q-31.5 -15.5 -47.5 -15.5 q-16 0 -26 11 l-146 162 q-112 21 -181 112.5 q-69 91.5 -69 242.5 ZM348 517 q-48 0 -80.5 -44 q-32.5 -44 -32.5 -123.5 q0 -79.5 31 -122 q31 -42.5 81.5 -42.5 q50.5 0 82 43 q31.5 43 31.5 123 q0 80 -32.5 123 q-32.5 43 -80.5 43 Z" /><glyph glyph-name="R" unicode="R" d="M241 14 q0 -16 -95 -16 q-96 0 -96 15 l0 652 q0 35 37 35 l191 0 q263 0 263 -205 q0 -62 -24 -112.5 q-24 -50.5 -68 -80.5 l126 -210 q-8 -24 -52 -55 q-60 -43 -99 -43 q-39 0 -58 28 l-94 219 l-31 0 l0 -227 ZM241 523 l0 -150 l5 0 q95 0 95 79 q0 36 -18.5 53.5 q-18.5 17.5 -60.5 17.5 l-21 0 Z" /><glyph glyph-name="S" unicode="S" d="M76 244 q19 -15 65.5 -41 q46.5 -26 89 -26 q42.5 0 42.5 33 q0 15 -12 26.5 q-12 11.5 -44 26.5 q-32 15 -48 23.5 q-16 8.5 -42.5 28 q-26.5 19.5 -40.5 40.5 q-40 57 -40 145 q0 88 65.5 148.5 q65.5 60.5 171.5 60.5 q72 0 133 -15.5 q61 -15.5 63 -40.5 q0 -3 0 -6 q0 -35 -22 -88.5 q-22 -53.5 -31 -59.5 q-64 33 -114.5 33 q-50.5 0 -50.5 -36 q0 -22 37 -39 q8 -4 23 -11 q15 -7 34.5 -16.5 q19.5 -9.5 42 -24 q22.5 -14.5 48.5 -38.5 q53 -50 53 -132 q0 -107 -59 -175 q-59 -68 -182 -70 q-60 0 -108.5 10 q-48.5 10 -84.5 39 q-36 29 -36 70 q0 41 15 81.5 q15 40.5 32 53.5 Z" /><glyph glyph-name="T" unicode="T" d="M351 16 q0 -20 -99 -20 q-99 0 -99 20 l0 502 l-120 0 q-17 0 -24 46 q-3 22 -3 45 q0 23 3 45 q7 46 24 46 l435 0 q17 0 24 -46 q3 -22 3 -45 q0 -23 -3 -45 q-7 -46 -24 -46 l-117 0 l0 -502 Z" /><glyph glyph-name="U" unicode="U" d="M377 680 q0 20 108.5 20 q108.5 0 108.5 -20 l0 -459 q0 -102 -73 -166.5 q-73 -64.5 -201.5 -64.5 q-128.5 0 -209 66.5 q-80.5 66.5 -80.5 179.5 l0 443 q0 20 108.5 20 q108.5 0 108.5 -20 l0 -451 q0 -20 21 -32 q22 -12 46 -12 q24 0 43.5 11 q19.5 11 19.5 33 l0 452 Z" /><glyph glyph-name="V" unicode="V" d="M11 687 q0 5 43.5 9.5 q43.5 4.5 71.5 4.5 q111 0 116 -29 l86 -440 l81 440 q6 29 124 29 q29 0 73 -4 q44 -4 44 -9 l-177 -662 q-4 -16 -59 -21 q-85 -9 -154.5 -3.5 q-69.5 5.5 -73.5 19.5 l-175 666 Z" /><glyph glyph-name="W" unicode="W" d="M21 690 q-3 11 101 11 q115 0 118 -19 l49 -421 l106 426 q5 15 78 15 q73 0 78 -14 l104 -429 l58 425 q2 11 46 15 q44 4 71 4 q105 0 102 -14 l-121 -663 q-4 -15 -57 -22 q-53 -7 -86 -7 q-124 0 -130 28 l-68 275 l-74 -274 q-4 -18 -70 -26 q-34 -3 -68 -3 l-64 3 q-66 7 -70 25 l-103 665 Z" /><glyph glyph-name="X" unicode="X" d="M421 673 q12 30 125 30 q29 0 71.5 -4.5 q42.5 -4.5 42.5 -8.5 l-170 -346 l176 -331 q3 -5 -43 -9.5 q-46 -4.5 -78 -4.5 q-127 0 -139 34 l-75 191 l-68 -197 q-10 -28 -128 -28 q-29 0 -72 4 q-43 4 -39 11 l156 346 l-162 330 q-3 5 41.5 9.5 q44.5 4.5 75.5 4.5 q126 0 138 -36 l69 -168 l79 173 Z" /><glyph glyph-name="Y" unicode="Y" d="M398 667 q13 35 128 35 q29 0 68.5 -4 q39.5 -4 36.5 -10 l-208 -418 l0 -244 q0 -17 -55 -24 q-28 -4 -55 -4 q-27 0 -54 3 q-55 7 -55 25 l0 238 l-215 422 q-4 6 41 11.5 q45 5.5 76 5.5 q123 0 135 -36 l73 -204 l84 204 Z" /><glyph glyph-name="Z" unicode="Z" d="M76 518 q-17 0 -24 46 q-3 19 -3 42 q0 23 5 48 q9 46 30 46 l370 0 q61 0 79 -111 q4 -24 4 -35 l-234 -355 l183 0 q1 0 2 0 q22 0 31 -48 q4 -23 4 -48 q0 -25 -6 -53 q-11 -50 -34 -50 l-389 0 q-9 0 -32.5 60.5 q-23.5 60.5 -23.5 75.5 q0 15 3 19 l234 363 l-199 0 Z" /><glyph glyph-name="bracketleft" unicode="[" d="M109 798 l216 0 q18 0 26 -29 q4 -15 4 -29 q0 -14 -4 -29 q-8 -29 -26 -29 l-129 0 l0 -682 l129 0 q18 0 26 -29 q4 -15 4 -29 q0 -14 -4 -29 q-8 -29 -26 -29 l-216 0 q-29 0 -29 29 l0 856 q0 29 29 29 Z" /><glyph glyph-name="backslash" unicode="\" d="M587 -36 q2 -4 2 -10 q0 -6 -5 -16 q-10 -20 -48 -37 q-15 -7 -22 -7 q-22 0 -27 11 l-467 811 q-3 5 -3 10.5 q0 5.5 5 15.5 q9 18 48 36 q14 7 21.5 7 q7.5 0 15 -0.5 q7.5 -0.5 13.5 -9.5 l467 -811 Z" /><glyph glyph-name="bracketright" unicode="]" d="M60 798 l216 0 q29 0 29 -29 l0 -856 q0 -29 -29 -29 l-216 0 q-18 0 -26 29 q-4 15 -4 29 q0 14 4 29 q8 29 26 29 l129 0 l0 682 l-129 0 q-18 0 -26 29 q-4 15 -4 29 q0 14 4 29 q8 29 26 29 Z" /><glyph glyph-name="asciicircum" unicode="^" d="M630 447 q6 -7 6 -17.5 q0 -10.5 -9.5 -32 q-9.5 -21.5 -27.5 -35 q-18 -13.5 -26.5 -13.5 q-8.5 0 -14.5 6 l-224 202 l-211 -205 q-6 -6 -14.5 -6 q-8.5 0 -27 13.5 q-18.5 13.5 -28 35 q-9.5 21.5 -9.5 32 q0 10.5 7 17.5 l256 231 q14 14 25 14 q11 0 21 -10 l277 -232 Z" /><glyph glyph-name="underscore" unicode="_" d="M552 -150 l-475 0 q-18 0 -26 29 q-4 15 -4 29 q0 14 4 29 q8 29 26 29 l475 0 q18 0 26 -29 q4 -15 4 -29 q0 -14 -4 -29 q-8 -29 -26 -29 Z" /><glyph glyph-name="grave" unicode="`" d="M250 529 q-2 0 -174 76 q-5 5 -5 14 q0 33 19 62.5 q19 29.5 29 29.5 q3 0 166 -90 q6 -6 6 -14 q0 -30 -16 -54 q-16 -24 -25 -24 Z" /><glyph glyph-name="a" unicode="a" d="M108 363 q-28 50 -28 81.5 q0 31.5 17 40.5 q57 25 156.5 25 q99.5 0 140.5 -46.5 q41 -46.5 41 -137.5 l0 -158 l34 0 q17 0 26.5 -20 q9.5 -20 9.5 -55 q0 -35 -17.5 -69 q-17.5 -34 -47.5 -34 q-54 0 -87 29 q-15 12 -23 29 q-46 -58 -143 -58 q-73 0 -123 52 q-50 52 -50 123 q0 163 195 163 l55 0 l0 10 q0 26 -8.5 33.5 q-8.5 7.5 -39.5 7.5 q-38 0 -108 -16 ZM188 179 q0 -22 12 -33.5 q12 -11.5 30.5 -11.5 q18.5 0 33.5 15 l0 77 l-28 0 q-48 0 -48 -47 Z" /><glyph glyph-name="b" unicode="b" d="M50 697 q0 12 86.5 12 q86.5 0 86.5 -13 l0 -194 q43 8 61 8 q210 0 210 -241 q0 -134 -64.5 -206.5 q-64.5 -72.5 -183 -72.5 q-118.5 0 -196.5 53 l0 654 ZM256 354 q-17 0 -33 -11 l0 -191 q14 -6 29.5 -6 q15.5 0 31.5 12 q28 20 28 93 q0 103 -56 103 Z" /><glyph glyph-name="c" unicode="c" d="M209 248 q0 -98 74 -98 q48 0 80 19 q15 0 24.5 -51.5 q9.5 -51.5 9.5 -70 q0 -18.5 -5 -24.5 q-53 -33 -145 -33 q-92 0 -156.5 68.5 q-64.5 68.5 -64.5 187 q0 118.5 63.5 191.5 q63.5 73 169 73 q105.5 0 146.5 -51 q9 -11 9 -32.5 q0 -21.5 -8 -52.5 q-18 -64 -47 -74 q-4 -1 -11.5 -1 q-7.5 0 -18.5 12 q-39 39 -62.5 39 q-23.5 0 -40.5 -24 q-17 -24 -17 -78 Z" /><glyph glyph-name="d" unicode="d" d="M298 694 q0 15 79 15 q27 0 62.5 -3.5 q35.5 -3.5 35.5 -9.5 l0 -527 l35 0 q25 0 33 -45 q2 -13 2 -35.5 q0 -22.5 -14 -54.5 q-20 -44 -64 -44 q-33 0 -58.5 13 q-25.5 13 -34.5 27 l-9 13 q-55 -53 -138 -53 q-83 0 -142 69 q-59 69 -59 192.5 q0 123.5 62 191 q62 67.5 155 67.5 q27 0 55 -6 l0 190 ZM265 350 q-56 0 -56 -101 q0 -51 16 -73.5 q16 -22.5 35.5 -22.5 q19.5 0 37.5 17 l0 170 q-17 10 -33 10 Z" /><glyph glyph-name="e" unicode="e" d="M423 27 q-63 -37 -162 -37 q-99 0 -167 67.5 q-68 67.5 -68 187 q0 119.5 65.5 192.5 q65.5 73 165.5 73 q100 0 154.5 -51 q54.5 -51 54.5 -124 q0 -162 -186 -162 l-69 0 q0 -30 16.5 -41.5 q16.5 -11.5 48.5 -11.5 q70 0 133 32 q1 1 9 -14 q24 -43 24 -72.5 q0 -29.5 -19 -38.5 ZM298 316 q0 42 -41 42 q-19 0 -32.5 -11.5 q-13.5 -11.5 -13.5 -33.5 l0 -31 l54 0 q33 0 33 34 Z" /><glyph glyph-name="f" unicode="f" d="M84 367 l-49 0 q-15 0 -15 66.5 q0 66.5 15 66.5 l49 0 l0 22 q0 106 44.5 146.5 q44.5 40.5 124.5 40.5 q80 0 141 -29 q8 -3 8 -21.5 q0 -18.5 -17 -59.5 q-17 -41 -29 -47 q-34 21 -70 21 q-39 0 -39 -52 l0 -21 l83 0 q18 0 18 -64 q0 -70 -23 -70 l-64 0 l0 -354 q0 -12 -88.5 -12 q-88.5 0 -88.5 12 l0 355 Z" /><glyph glyph-name="g" unicode="g" d="M229 0 q-97 0 -150 62.5 q-53 62.5 -53 185 q0 122.5 69.5 192 q69.5 69.5 185 69.5 q115.5 0 190.5 -51 l0 -498 q0 -74 -60 -113.5 q-60 -39.5 -154 -39.5 q-94 0 -168 24 q-10 24 -10 43 q0 64 21 94 q67 -29 143 -29 q55 0 55 39 l0 30 q-43 -8 -69 -8 ZM275 346 q-67 0 -67 -101 q0 -63 26 -82 q17 -13 34 -13 q17 0 30 3 l0 190 q-12 3 -23 3 Z" /><glyph glyph-name="h" unicode="h" d="M212 7 q0 -9 -83.5 -9 q-83.5 0 -83.5 14 l0 685 q0 7 31 10 q31 3 52 3 q84 0 84 -18 l0 -200 q56 17 85 17 q76 0 120 -40.5 q44 -40.5 44 -150.5 l0 -310 q0 -9 -78 -9 q-88 3 -88 10 l0 294 q0 49 -32 49 q-22 0 -51 -21 l0 -324 Z" /><glyph glyph-name="i" unicode="i" d="M228 6 q0 -8 -91.5 -8 q-91.5 0 -91.5 7 l0 491 q0 7 91.5 7 q91.5 0 91.5 -6 l0 -491 ZM228 556 q0 -7 -91.5 -7 q-91.5 0 -91.5 6 l0 144 q0 10 91.5 10 q91.5 0 91.5 -6 l0 -147 Z" /><glyph glyph-name="j" unicode="j" d="M45 35 l0 461 q0 6 90.5 6 q90.5 0 90.5 -5 l0 -533 q0 -74 -61.5 -117.5 q-61.5 -43.5 -153.5 -43.5 q-129 0 -129 90 q0 30 10 50 q9 -1 25 -1 q73 0 100.5 23 q27.5 23 27.5 70 ZM45 555 l0 144 q0 10 90.5 10 q90.5 0 90.5 -6 l0 -147 q0 -7 -90.5 -7 q-90.5 0 -90.5 6 Z" /><glyph glyph-name="k" unicode="k" d="M45 692 q0 16 91 16 q85 -3 85 -13 l0 -384 l99 183 q7 15 85 15 q78 0 100 -10 l-130 -212 l150 -281 q2 -4 -37.5 -6.5 q-39.5 -2.5 -65.5 -2.5 q-96 0 -103 9 l-99 222 l0 -221 q0 -13 -87.5 -13 q-87.5 0 -87.5 12 l0 686 Z" /><glyph glyph-name="l" unicode="l" d="M227 8 q0 -9 -102 -9 q-80 1 -80 8 l0 681 q0 15 97 15 q85 -3 85 -10 l0 -685 Z" /><glyph glyph-name="m" unicode="m" d="M498 5 q0 -7 -85.5 -7 q-85.5 0 -85.5 9 l0 291 q0 50 -33 50 q-17 0 -45 -22 l0 -320 q0 -10 -85.5 -10 q-85.5 0 -85.5 11 l0 327 l-25 0 q-33 0 -33 69 q0 31 12 63 q16 44 52 44 q36 0 69.5 -19 q33.5 -19 40.5 -36 q62 55 137.5 55 q75.5 0 121.5 -47 q54 47 130 47 q165 0 165 -201 l0 -304 q0 -7 -85.5 -7 q-85.5 0 -85.5 9 l0 291 q0 50 -33 50 q-18 0 -46 -22 l0 -321 Z" /><glyph glyph-name="n" unicode="n" d="M254 6 q0 -7 -72 -7 q-100 3 -100 11 l0 324 l-26 0 q-26 0 -34 44 q-2 13 -2 26 q0 31 12 62 q18 44 56 44 q38 0 68 -18 q30 -18 40 -36 q63 54 150 54 q87 0 126 -47 q39 -47 39 -154 l0 -300 q0 -12 -85.5 -12 q-85.5 0 -85.5 12 l0 289 q0 50 -35 50 q-10 0 -28 -8.5 q-18 -8.5 -23 -12.5 l0 -321 Z" /><glyph glyph-name="o" unicode="o" d="M88.5 59 q-62.5 69 -62.5 191 q0 122 62.5 191 q62.5 69 168.5 69 q106 0 168 -69 q62 -69 62 -191 q0 -122 -62 -191 q-62 -69 -168 -69 q-106 0 -168.5 69 ZM257.5 343 q-56.5 0 -56.5 -92 q0 -92 56.5 -92 q56.5 0 56.5 92 q0 92 -56.5 92 Z" /><glyph glyph-name="p" unicode="p" d="M260 -182 q0 -7 -85.5 -7 q-85.5 0 -85.5 7 l0 515 l-34 0 q-24 0 -33 44 q-3 14 -3 36 q0 22 14 52 q20 44 64 44 q29 0 53.5 -13.5 q24.5 -13.5 34 -25 q9.5 -11.5 9.5 -13.5 q67 52 145 52 q78 0 134 -60.5 q56 -60.5 56 -187 q0 -126.5 -56 -196 q-56 -69.5 -142 -69.5 q-39 0 -71 4 l0 -182 ZM301 334 q-17 0 -33 -11 l0 -177 q17 -2 27.5 -2 q10.5 0 16.5 0 q41 4 41 105 q0 85 -52 85 Z" /><glyph glyph-name="q" unicode="q" d="M226 -4 q-92 0 -146 71 q-54 71 -54 190 q0 119 66 186 q66 67 181 67 q115 0 193 -53 l0 -637 q0 -13 -86 -13 q-86 0 -86 13 l0 184 q-40 -8 -68 -8 ZM228 334 q-23 -20 -23 -86.5 q0 -66.5 27 -84.5 q15 -10 31 -10 q16 0 31 5 l0 186 q-15 4 -33 4 q-18 0 -33 -14 Z" /><glyph glyph-name="r" unicode="r" d="M264 1 q0 -7 -91 -7 q-91 2 -91 8 l0 332 l-27 0 q-16 0 -25.5 19.5 q-9.5 19.5 -9.5 48.5 q0 108 64 108 q45 0 75 -27.5 q30 -27.5 30 -62.5 q21 41 56.5 65.5 q35.5 24.5 72.5 24.5 q58 0 70 -30 q3 -8 3 -23.5 q0 -15.5 -9.5 -55.5 q-9.5 -40 -19.5 -58 q-10 -18 -12 -18 q-2 0 -18.5 7.5 q-16.5 7.5 -29.5 7.5 q-38 0 -38 -60 l0 -279 Z" /><glyph glyph-name="s" unicode="s" d="M66 180 q81 -49 128 -49 q30 0 30 21 q0 15 -52 39 q-125 51 -125 167 q0 74 54 113 q54 39 129.5 39 q75.5 0 128 -16 q52.5 -16 52.5 -42 q0 -22 -21.5 -58 q-21.5 -36 -29.5 -39 q-43 24 -93 24 q-27 0 -27 -19 q0 -12 10.5 -20.5 q10.5 -8.5 38.5 -21 q28 -12.5 46.5 -22.5 q18.5 -10 41.5 -28 q48 -38 48 -99 q0 -80 -53 -129.5 q-53 -49.5 -160 -49.5 q-71 0 -129 24 q-58 24 -58 66 q0 28 13.5 59 q13.5 31 27.5 41 Z" /><glyph glyph-name="t" unicode="t" d="M275 6 q0 -12 -84 -12 q-100 4 -100 13 l0 354 l-51 0 q-20 0 -20 69 q0 18 3.5 44 q3.5 26 14.5 26 l53 0 l0 88 q0 20 84.5 20 q84.5 0 84.5 -16 l0 -64 l1 -28 l85 0 q17 0 17 -70 q0 -70 -17 -70 l-71 0 l0 -354 Z" /><glyph glyph-name="u" unicode="u" d="M40 494 q0 11 86 11 q86 0 86 -11 l0 -292 q0 -50 32 -50 q24 0 54 21 l0 321 q0 10 85 10 q85 0 85 -10 l0 -328 l26 0 q34 0 34 -65 q0 -33 -14 -67 q-20 -44 -54 -44 q-67 0 -99 55 l-1 -1 q-61 -54 -131 -54 q-97 0 -143 48.5 q-46 48.5 -46 160.5 l0 295 Z" /><glyph glyph-name="v" unicode="v" d="M6 497 q-3 8 93.5 8 q96.5 0 96.5 -5 l72 -340 l54 335 q3 9 99 9 q97 0 94 -8 l-141 -489 q-7 -10 -119 -10 q-112 0 -120 15 l-129 485 Z" /><glyph glyph-name="w" unicode="w" d="M564 495 q0 9 55 9 q124 0 122 -8 l-98 -486 q-3 -16 -111 -16 q-108 0 -111 16 l-41 224 l-51 -224 q-3 -15 -114.5 -15 q-111.5 0 -114.5 18 l-89 487 q-3 6 86 6 q88 -1 88 -4 l46 -338 l83 334 q2 6 66 6 q64 0 66 -6 l82 -330 l36 327 Z" /><glyph glyph-name="x" unicode="x" d="M345 497 q4 8 50 8 q150 0 146 -11 l-122 -253 q123 -230 123 -230 q0 -6 -60 -10 q-60 -4 -85 -4 q-63 0 -67 13 l-54 167 l-62 -174 q-2 -7 -57 -7 q-55 0 -98 4 q-43 4 -39 10 l113 230 q-118 247 -118 248 q0 6 30.5 11 q30.5 5 69 5 q38.5 0 73.5 -3.5 q35 -3.5 39 -9.5 l53 -162 l65 168 Z" /><glyph glyph-name="y" unicode="y" d="M10 495 q0 11 91.5 11 q91.5 0 94.5 -10 l72 -236 l69 238 q4 8 62 8 q133 0 127 -13 l-235 -669 q-1 -6 -54.5 -6 q-53.5 0 -99.5 3.5 q-46 3.5 -44 8.5 l87 210 l-170 455 Z" /><glyph glyph-name="z" unicode="z" d="M43 340 q-7 0 -7 43 q0 117 19 117 l319 0 q7 0 31 -44 q24 -44 24 -49.5 q0 -5.5 -1 -6.5 l-194 -244 l174 12 q16 0 16 -71 q0 -27 -5 -62 q-5 -35 -17 -35 l-320 0 q-15 0 -36 50 q-21 50 -21 60.5 q0 10.5 2 12.5 l191 223 l-175 -6 Z" /><glyph glyph-name="braceleft" unicode="{" d="M225 202 l0 -265 q0 -41 51 -82 q6 -5 6 -14.5 q0 -9.5 -27.5 -32 q-27.5 -22.5 -55.5 -22.5 q-13 0 -20 6 q-21 20 -33.5 34.5 q-12.5 14.5 -24.5 44.5 q-12 30 -12 66 l0 240 q0 24 -18 49 q-18 25 -45 37 q-16 9 -16 56 q0 47 16 54 q63 24 63 84 l0 255 q0 68 74 130 q9 5 20 5 q37 0 67 -33 q11 -13 11 -21 q0 -8 -5 -13 q-51 -51 -51 -83 l0 -250 q0 -74 -58 -132 q58 -56 58 -113 Z" /><glyph glyph-name="bar" unicode="|" d="M369 893 l0 -1083 q0 -18 -29 -26 q-14 -4 -29 -4 l-29 4 q-29 8 -29 26 l0 1083 q0 18 29 26 q14 4 29 4 l29 -4 q29 -8 29 -26 Z" /><glyph glyph-name="braceright" unicode="}" d="M138 -63 l0 265 q0 58 57 113 q-58 58 -58 132 l0 250 q0 32 -51 83 q-5 5 -5 13.5 q0 8.5 14 25 q14 16.5 33 22.5 q19 6 30 6 q11 0 21 -5 q77 -64 77 -130 l0 -255 q0 -61 60 -84 q16 -7 16 -45 q0 -56 -16 -65 q-27 -12 -43.5 -36.5 q-16.5 -24.5 -16.5 -49.5 l0 -240 q0 -36 -13 -66.5 q-13 -30.5 -25 -44 q-12 -13.5 -35 -34.5 q-8 -7 -23 -7 q-15 0 -47 19.5 q-32 19.5 -32 39.5 q0 7 5 11 q52 42 52 82 Z" /><glyph glyph-name="asciitilde" unicode="~" d="M74 226 q-19 5 -35.5 33.5 q-16.5 28.5 -16.5 38 q0 9.5 3 12.5 q63 63 130 63 q31 0 70 -18.5 q39 -18.5 60 -18.5 q37 1 69 39 q2 1 5 1 q12 0 33 -28 q21 -28 21 -38 q0 -29 -47 -62 q-32 -21 -61 -21 q-4 0 -7 0 q-38 0 -84 20 q-46 20 -56.5 20 q-10.5 0 -17.5 -2 q-7 -2 -12.5 -3.5 q-5.5 -1.5 -13 -6.5 q-7.5 -5 -11.5 -7.5 q-4 -2.5 -14 -10.5 q-10 -8 -15 -11 Z" /><glyph glyph-name="exclamdown" unicode="¡" d="M65 290 q0 6 71.5 6 q71.5 0 71.5 -5 l20 -481 q0 -8 -91.5 -8 q-91.5 0 -91.5 7 l20 481 ZM230 350 q0 -7 -92.5 -7 q-92.5 0 -92.5 6 l0 144 q0 10 92.5 10 q92.5 0 92.5 -6 l0 -147 Z" /><glyph glyph-name="cent" unicode="¢" d="M277 707 q0 19 28 19 q28 0 28 -19 l0 -63 q58 -4 99 -22 q41 -18 41 -44.5 q0 -26.5 -15.5 -60 q-15.5 -33.5 -31.5 -53.5 l-16 -21 q-26 15 -77 18 l0 -206 q55 4 94 22 q20 -27 34 -63 q14 -36 14 -68.5 q0 -32.5 -40 -54 q-40 -21.5 -102 -25.5 l0 -62 q0 -21 -28 -21 q-28 0 -28 21 l0 61 q-110 6 -176 80.5 q-66 74.5 -66 209 q0 134.5 66.5 207.5 q66.5 73 175.5 82 l0 63 ZM277 459 q-72 -14 -72 -100 q0 -86 72 -102 l0 202 Z" /><glyph glyph-name="sterling" unicode="£" d="M389 299 l-92 0 q-6 -81 -37 -128 l172 0 q18 0 26 -43 q3 -21 3 -42.5 q0 -21.5 -3 -42.5 q-7 -43 -25 -43 l-342 0 q-24 14 -44 62 q-10 24 -10 41 q0 17 10 27 q82 82 90 169 l-85 0 q-14 0 -20 21 q-2 10 -2 21 q0 11 2 21 q6 21 19 21 l60 0 q-2 3 -10.5 16.5 q-8.5 13.5 -12 19 q-3.5 5.5 -10.5 18.5 q-7 13 -10.5 22.5 q-3.5 9.5 -7.5 22.5 q-8 23 -8 57 q0 171 249 171 q63 0 111 -17.5 q48 -17.5 48 -49 q0 -31.5 -14.5 -81 q-14.5 -49.5 -26.5 -59.5 q-40 21 -90 21 q-95 0 -95 -61 q0 -39 45 -80 l110 0 q20 0 20 -42 q0 -42 -20 -42 Z" /><glyph glyph-name="currency" unicode="¤" d="M473 159 q-56 -36 -119 -36 q-63 0 -116 36 l-79 -79 q-5 -5 -12 -5 q-7 0 -22 9 q-15 9 -26 28.5 q-11 19.5 -2 28.5 l79 79 q-36 56 -36 120 q0 64 34 116 l-82 82 q-5 4 -5 11 q0 7 9 21.5 q9 14.5 24 24 q15 9.5 22 9.5 q7 0 12 -5 l81 -81 q54 38 119.5 38 q65.5 0 120.5 -37 l80 80 q4 5 11 5 q7 0 21.5 -8.5 q14.5 -8.5 24 -24 q9.5 -15.5 9.5 -22.5 q0 -7 -4 -11 l-81 -80 q36 -53 36 -118 q0 -65 -38 -121 l79 -79 q9 -9 -3 -28 q-12 -19 -26 -28 q-14 -9 -21 -9 q-7 0 -11 5 l-79 79 ZM271 424 q-36 -36 -36 -84 q0 -48 35 -85 q35 -35 85 -35 q50 0 84.5 34.5 q34.5 34.5 34.5 84.5 q0 50 -34.5 85.5 q-34.5 35.5 -82.5 35.5 q-50 0 -86 -36 Z" /><glyph glyph-name="yen" unicode="¥" d="M567 213 l-134 0 l0 -196 q0 -17 -55 -25 q-28 -3 -55 -3 q-27 0 -54 3 q-55 7 -55 25 l0 196 l-123 0 q-23 0 -23 32 q0 32 23 32 l123 0 l0 61 l-123 0 q-23 0 -23 37 q0 37 23 37 l91 0 l-182 284 q-5 8 43 11.5 q48 3.5 73 3.5 q103 0 124 -34 l91 -157 l90 157 q18 34 131 34 q25 0 62.5 -4 q37.5 -4 34.5 -9 l-181 -286 l99 0 q15 0 21 -18 q4 -10 4 -19.5 q0 -9.5 -3 -18.5 q-6 -18 -22 -18 l-134 0 l0 -61 l134 0 q15 0 21 -16 q4 -8 4 -16 q0 -8 -3 -16 q-6 -16 -22 -16 Z" /><glyph glyph-name="brokenbar" unicode="¦" d="M269 193 l0 -383 q0 -18 -29 -26 q-14 -4 -29 -4 l-29 4 q-29 8 -29 26 l0 383 q0 18 29 26 q14 4 29 4 l29 -4 q29 -8 29 -26 ZM269 711 l0 -356 q0 -18 -29 -26 q-14 -4 -29 -4 l-29 4 q-29 8 -29 26 l0 356 q0 18 29 26 q14 4 29 4 l29 -4 q29 -8 29 -26 Z" /><glyph glyph-name="section" unicode="§" d="M91 24 q29 -17 85.5 -42 q56.5 -25 102 -25 q45.5 0 45.5 30 q0 15 -27.5 29 q-27.5 14 -66 30 q-38.5 16 -77.5 37 q-39 21 -66.5 58.5 q-27.5 37.5 -27.5 86.5 q0 92 78 144 q-74 47 -78 135 q0 91 70.5 147 q70.5 56 188.5 56 q78 0 145 -14 q67 -14 69 -37 q0 -36 -24 -86 q-24 -50 -34 -55 q-90 27 -144 27 q-54 0 -54 -33 q0 -36 98 -79 q41 -18 82 -39 q41 -21 69.5 -54.5 q28.5 -33.5 28.5 -73.5 q0 -92 -78 -142 q31 -20 54.5 -55 q23.5 -35 23.5 -69 q0 -93 -64 -150 q-64 -57 -200 -59 q-144 0 -211 45 q-39 27 -39 64.5 q0 37.5 16 74.5 q16 37 35 49 ZM372.5 196.5 q10.5 11.5 10.5 34.5 q0 23 -37.5 47.5 q-37.5 24.5 -67.5 24.5 q-43 0 -43 -43 q0 -26 35 -50.5 q35 -24.5 63.5 -24.5 q28.5 0 39 11.5 Z" /><glyph glyph-name="dieresis" unicode="¨" d="M177 552 q0 -6 -69.5 -6 q-69.5 0 -69.5 5 l0 140 q0 9 69.5 9 q69.5 0 69.5 -5 l0 -143 ZM407 552 q0 -6 -69.5 -6 q-69.5 0 -69.5 5 l0 140 q0 9 69.5 9 q69.5 0 69.5 -5 l0 -143 Z" /><glyph glyph-name="copyright" unicode="©" d="M162.5 273.5 q-78.5 78.5 -78.5 190.5 q0 112 78.5 190.5 q78.5 78.5 190.5 78.5 q112 0 190.5 -78.5 q78.5 -78.5 78.5 -190.5 q0 -112 -78.5 -190.5 q-78.5 -78.5 -190.5 -78.5 q-112 0 -190.5 78.5 ZM356 680 q-88 0 -151 -63 q-63 -63 -63 -151 q0 -88 61.5 -150.5 q61.5 -62.5 151 -62.5 q89.5 0 152 63 q62.5 63 62.5 150.5 q0 87.5 -62.5 150.5 q-62.5 63 -150.5 63 ZM450 583 q0 -10 -6.5 -28.5 q-6.5 -18.5 -15 -31.5 q-8.5 -13 -14.5 -9 q-17 10 -39 10 q-22 0 -36 -14 q-14 -14 -14 -41 q0 -55 57 -55 q29 0 40 11 q5 3 13 -10 q20 -33 20 -60 q0 -17 -26.5 -27 q-26.5 -10 -62.5 -10 q-66 0 -108 39 q-42 39 -42 109 q0 70 43 110 q43 40 108 40 q32 0 57.5 -9 q25.5 -9 25.5 -24 Z" /><glyph glyph-name="ordfeminine" unicode="ª" d="M143 601 q-19 29 -19 53 q0 24 11 27 q37 18 109 18 q72 0 98.5 -31 q26.5 -31 26.5 -92 l0 -105 l24 0 q23 0 23 -46 q0 -28 -11.5 -50 q-11.5 -22 -31.5 -22 q-38 0 -57 19 q-9 6 -16 19 q-32 -38 -105 -38 q-49 0 -82 34.5 q-33 34.5 -33 81.5 q0 98 120 98 l47 0 l0 18 q0 17 -7.5 22 q-7.5 5 -30 5 q-22.5 0 -66.5 -11 ZM195 471 q0 -29 28 -29 q12 0 24 9 l0 52 l-20 0 q-32 0 -32 -32 Z" /><glyph glyph-name="guillemotleft" unicode="«" d="M99 236 q-10 10 -10 21 q0 11 14 25 l168 197 q6 6 15.5 6 q9.5 0 30 -12 q20.5 -12 32 -31.5 q11.5 -19.5 11.5 -29 q0 -9.5 -7 -15.5 l-132 -142 l134 -144 q7 -6 7 -15.5 q0 -9.5 -11.5 -29 q-11.5 -19.5 -32 -31.5 q-20.5 -12 -30 -12 q-9.5 0 -15.5 6 l-174 207 ZM399 236 q-10 10 -10 21 q0 11 14 25 l168 197 q6 6 15.5 6 q9.5 0 30 -12 q20.5 -12 32 -31.5 q11.5 -19.5 11.5 -29 q0 -9.5 -7 -15.5 l-132 -142 l134 -144 q7 -6 7 -15.5 q0 -9.5 -11.5 -29 q-11.5 -19.5 -32 -31.5 q-20.5 -12 -30 -12 q-9.5 0 -15.5 6 l-174 207 Z" /><glyph glyph-name="logicalnot" unicode="¬" d="M510 81 q0 -21 -56 -21 q-17 0 -41 5 q-24 5 -24 19 l2 136 l-294 0 q-18 0 -26 29 q-4 15 -4 29 q0 14 4 29 q8 29 26 29 l372 0 q41 0 41 -38 l0 -217 Z" /><glyph glyph-name="uni00AD" unicode="­" d="M372 190 l-295 0 q-18 0 -26 29 q-4 15 -4 29 q0 14 4 29 q8 29 26 29 l295 0 q18 0 26 -29 q4 -15 4 -29 q0 -14 -4 -29 q-8 -29 -26 -29 Z" /><glyph glyph-name="registered" unicode="®" d="M162.5 273.5 q-78.5 78.5 -78.5 190.5 q0 112 78.5 190.5 q78.5 78.5 190.5 78.5 q112 0 190.5 -78.5 q78.5 -78.5 78.5 -190.5 q0 -112 -78.5 -190.5 q-78.5 -78.5 -190.5 -78.5 q-112 0 -190.5 78.5 ZM356 680 q-88 0 -151 -63 q-63 -63 -63 -151 q0 -88 61.5 -150.5 q61.5 -62.5 151 -62.5 q89.5 0 152 63 q62.5 63 62.5 150.5 q0 87.5 -62.5 150.5 q-62.5 63 -150.5 63 ZM475 529 q0 -51 -42 -80 l70 -88 q-4 -8 -18 -20 q-14 -12 -28.5 -18 q-14.5 -6 -23.5 -6 q-36 0 -54 41 l-30 67 l-8 0 l0 -94 q0 -12 -48.5 -12 q-48.5 0 -48.5 12 l0 269 q0 15 15 15 l103 0 q113 0 113 -86 ZM341 543 l0 -60 l2 0 q39 0 39 33 q0 27 -33 27 l-8 0 Z" /><glyph glyph-name="degree" unicode="°" d="M80.5 398 q-40.5 45 -40.5 128 q0 83 40.5 128 q40.5 45 112 45 q71.5 0 112 -45.5 q40.5 -45.5 40.5 -127.5 q0 -82 -40.5 -127.5 q-40.5 -45.5 -112 -45.5 q-71.5 0 -112 45 ZM130.5 598.5 q-22.5 -25.5 -22.5 -72.5 q0 -47 22.5 -72.5 q22.5 -25.5 62 -25.5 q39.5 0 61.5 25.5 q22 25.5 22 72.5 q0 47 -22 72.5 q-22 25.5 -61.5 25.5 q-39.5 0 -62 -25.5 Z" /><glyph glyph-name="plusminus" unicode="±" d="M353 259 q0 -9 -58 -9 q-58 0 -58 9 l0 101 l-140 0 q-18 0 -26 29 q-4 15 -4 29 q0 14 4 29 q8 29 26 29 l140 0 l0 138 q0 18 29 26 q14 4 29 4 l29 -4 q29 -8 29 -26 l0 -138 l139 0 q18 0 26 -29 q4 -15 4 -29 q0 -14 -4 -29 q-8 -29 -26 -29 l-139 0 l0 -101 ZM97 213 l395 0 q18 0 26 -29 q4 -14 4 -29 q0 -15 -4 -29 q-8 -29 -26 -29 l-395 0 q-18 0 -26 29 q-4 14 -4 29 q0 15 4 29 q8 29 26 29 Z" /><glyph glyph-name="twosuperior" unicode="²" d="M84 581 q-29 43 -29 71 q0 8 4.5 18 q4.5 10 42 21 q37.5 11 80.5 11 q108 0 108 -96 q0 -73 -90 -151 l101 4 q2 -18 2 -44 q0 -56 -29 -56 l-190 0 q-17 0 -24 40 q-3 21 -3 32 q0 11 3 14 q75 59 91.5 81 q16.5 22 16.5 39.5 q0 17.5 -7 25.5 q-7 8 -28 8 q-21 0 -49 -18 Z" /><glyph glyph-name="threesuperior" unicode="³" d="M29 398 q0 19 10 40.5 q10 21.5 16 29.5 q26 -17 51 -17 q48 0 48 31 q0 15 -9.5 20.5 q-9.5 5.5 -33.5 5.5 l-10 0 q-6 0 -10.5 11.5 q-4.5 11.5 -4.5 22.5 q0 11 9 11 l18 1 q32 2 32 28 q0 20 -31 20 q-31 0 -55 -10 q-4 6 -12.5 27.5 q-8.5 21.5 -8.5 39.5 q0 18 36 29.5 q36 11.5 85 11.5 q49 0 75 -22 q26 -22 26 -56 q0 -48 -51 -79 q29 -13 44.5 -31 q15.5 -18 15.5 -56.5 q0 -38.5 -31 -66 q-31 -27.5 -83 -27.5 q-52 0 -89 10.5 q-37 10.5 -37 25.5 Z" /><glyph glyph-name="acute" unicode="´" d="M113 529 q-9 0 -23 20 q-18 28 -18 47 q0 19 6 25 q163 90 166 90 q10 0 25 -24 q23 -35 23 -66 q0 -11 -5 -16 q-172 -76 -174 -76 Z" /><glyph glyph-name="mu" unicode="µ" d="M40 494 q0 11 86 11 q86 0 86 -11 l0 -292 q0 -50 32 -50 q24 0 54 21 l0 321 q0 10 85 10 q85 0 85 -10 l0 -328 l26 0 q34 0 34 -65 q0 -33 -14 -67 q-20 -44 -54 -44 q-67 0 -99 55 q-24 -24 -56 -33 q-32 -9 -52 -9 q-20 0 -41 6 l0 -168 q0 -16 -43 -22 q-21 -3 -41 -3 l-45 4 q-43 6 -43 21 l0 653 Z" /><glyph glyph-name="paragraph" unicode="¶" d="M185 21 l0 272 q-75 0 -115 57.5 q-40 57.5 -40 148 q0 90.5 55.5 146 q55.5 55.5 159.5 55.5 l429 0 q20 0 29 -40 q5 -21 5 -41 q0 -20 -4 -39 q-9 -40 -30 -40 l-50 0 l0 -519 q0 -19 -50 -27 q-24 -3 -48 -3 l-52 4 q-50 8 -50 26 l0 489 q0 14 -20 20 q-10 2 -20 2 q-10 0 -20 -2 q-21 -6 -21 -20 l0 -489 q0 -17 -39 -24 q-20 -3 -40 -3 l-40 3 q-39 7 -39 24 Z" /><glyph glyph-name="periodcentered" unicode="·" d="M247 217 q0 -7 -94.5 -7 q-94.5 0 -94.5 6 l0 180 q0 9 94.5 9 q94.5 0 94.5 -5 l0 -183 Z" /><glyph glyph-name="cedilla" unicode="¸" d="M101 -120 q0 54 27 54 l33 0 q21 0 27 5.5 q6 5.5 6 26.5 l0 55 l61 0 q38 -82 38 -124 q0 -13 -3 -22 q-15 -45 -94 -45 q-44 0 -79 16 q-16 7 -16 34 Z" /><glyph glyph-name="onesuperior" unicode="¹" d="M231 683 l0 -320 q0 -9 -61.5 -9 q-61.5 0 -61.5 9 l0 227 l-52 -1 q-15 0 -15 53 q0 53 15 53 l157 0 q18 0 18 -12 Z" /><glyph glyph-name="ordmasculine" unicode="º" d="M80.5 398 q-40.5 45 -40.5 128 q0 83 40.5 128 q40.5 45 112 45 q71.5 0 112 -45.5 q40.5 -45.5 40.5 -127.5 q0 -82 -40.5 -127.5 q-40.5 -45.5 -112 -45.5 q-71.5 0 -112 45 ZM193 578 q-40 0 -40 -51 q0 -51 40 -51 q16 0 28 11.5 q12 11.5 12 39 q0 27.5 -12 39.5 q-12 12 -28 12 Z" /><glyph glyph-name="guillemotright" unicode="»" d="M478 29 q-7 -7 -16.5 -7 q-9.5 0 -29.5 12 q-20 12 -31.5 32 q-11.5 20 -11.5 29.5 q0 9.5 7 15.5 l134 144 l-132 142 q-7 6 -7 15.5 q0 9.5 11.5 29 q11.5 19.5 31.5 31.5 q20 12 30 12 q10 0 16 -6 l168 -197 q14 -14 14 -25 q0 -11 -10 -21 l-174 -207 ZM178 29 q-7 -7 -16.5 -7 q-9.5 0 -29.5 12 q-20 12 -31.5 32 q-11.5 20 -11.5 29.5 q0 9.5 7 15.5 l134 144 l-132 142 q-7 6 -7 15.5 q0 9.5 11.5 29 q11.5 19.5 31.5 31.5 q20 12 30 12 q10 0 16 -6 l168 -197 q14 -14 14 -25 q0 -11 -10 -21 l-174 -207 Z" /><glyph glyph-name="onequarter" unicode="¼" d="M760 150 q6 0 6 -36.5 q0 -36.5 -6 -36.5 l-31 0 l0 -68 q0 -12 -62 -12 q-52 3 -52 11 l0 67 l-106 0 q-12 9 -22.5 30.5 q-10.5 21.5 -10.5 31 q0 9.5 3 14.5 l106 188 q3 7 73 7 q70 0 70 -2 l1 -194 l31 0 ZM634 149 l0 102 l-57 -102 l57 0 ZM271 688 l0 -320 q0 -9 -61.5 -9 q-61.5 0 -61.5 9 l0 227 l-52 -1 q-15 0 -15 53 q0 53 15 53 l157 0 q18 0 18 -12 ZM565 688 q11 10 21 10 q34 0 56 -24 q12 -11 12 -19.5 q0 -8.5 -4 -14.5 l-393 -640 q-10 -10 -20 -10 q-34 0 -57 24 q-12 12 -12 20.5 q0 8.5 4 14.5 l393 639 Z" /><glyph glyph-name="onehalf" unicode="½" d="M273 688 l0 -320 q0 -9 -61.5 -9 q-61.5 0 -61.5 9 l0 227 l-52 -1 q-15 0 -15 53 q0 53 15 53 l157 0 q18 0 18 -12 ZM562 222 q-29 43 -29 71 q0 8 4.5 18 q4.5 10 42 21 q37.5 11 80.5 11 q108 0 108 -96 q0 -73 -90 -151 l101 4 q2 -18 2 -44 q0 -56 -29 -56 l-190 0 q-17 0 -24 40 q-3 21 -3 32 q0 11 3 14 q75 59 91.5 81 q16.5 22 16.5 39.5 q0 17.5 -7 25.5 q-7 8 -28 8 q-21 0 -49 -18 ZM565 688 q11 10 21 10 q34 0 56 -24 q12 -11 12 -19.5 q0 -8.5 -4 -14.5 l-393 -640 q-10 -10 -20 -10 q-34 0 -57 24 q-12 12 -12 20.5 q0 8.5 4 14.5 l393 639 Z" /><glyph glyph-name="threequarters" unicode="¾" d="M760 150 q6 0 6 -36.5 q0 -36.5 -6 -36.5 l-31 0 l0 -68 q0 -12 -62 -12 q-52 3 -52 11 l0 67 l-106 0 q-12 9 -22.5 30.5 q-10.5 21.5 -10.5 31 q0 9.5 3 14.5 l106 188 q3 7 73 7 q70 0 70 -2 l1 -194 l31 0 ZM634 149 l0 102 l-57 -102 l57 0 ZM69 398 q0 19 10 40.5 q10 21.5 16 29.5 q26 -17 51 -17 q48 0 48 31 q0 15 -9.5 20.5 q-9.5 5.5 -33.5 5.5 l-10 0 q-6 0 -10.5 11.5 q-4.5 11.5 -4.5 22.5 q0 11 9 11 l18 1 q32 2 32 28 q0 20 -31 20 q-31 0 -55 -10 q-4 6 -12.5 27.5 q-8.5 21.5 -8.5 39.5 q0 18 36 29.5 q36 11.5 85 11.5 q49 0 75 -22 q26 -22 26 -56 q0 -48 -51 -79 q29 -13 44.5 -31 q15.5 -18 15.5 -56.5 q0 -38.5 -31 -66 q-31 -27.5 -83 -27.5 q-52 0 -89 10.5 q-37 10.5 -37 25.5 ZM565 688 q11 10 21 10 q34 0 56 -24 q12 -11 12 -19.5 q0 -8.5 -4 -14.5 l-393 -640 q-10 -10 -20 -10 q-34 0 -57 24 q-12 12 -12 20.5 q0 8.5 4 14.5 l393 639 Z" /><glyph glyph-name="questiondown" unicode="¿" d="M250 505 q0 6 82.5 6 q82.5 0 82.5 -5 l0 -157 q0 -8 -82.5 -8 q-82.5 0 -82.5 5 l0 159 ZM348 303 q79 0 79 -19 l0 -38 q0 -45 -75 -115 q-28 -26 -51.5 -59 q-23.5 -33 -23.5 -60 q0 -50 57.5 -50 q57.5 0 115.5 38 q38 -38 54 -86 q5 -16 5 -28.5 q0 -12.5 -5 -23.5 q-10 -26 -75.5 -49 q-65.5 -23 -139.5 -23 q-112 0 -168 48 q-56 48 -56 131 q0 38 18.5 74.5 q18.5 36.5 44.5 64 q26 27.5 52 52.5 q64 58 64 90 l0 30 q0 12 37.5 17.5 q37.5 5.5 66.5 5.5 Z" /><glyph glyph-name="Agrave" unicode="À" d="M519 -12 q-87 0 -94 28 l-32 139 l-159 0 l-30 -134 q-6 -31 -96 -31 q-48 0 -71 5.5 q-23 5.5 -23 8.5 l178 687 q0 8 137 8 q137 0 137 -8 l172 -688 q0 -7 -46 -11 q-46 -4 -73 -4 ZM259 282 l105 0 l-45 207 l-6 0 l-54 -207 ZM222 805 q-5 5 -5 14 q0 33 19 62.5 q19 29.5 29 29.5 q3 0 166 -90 q6 -6 6 -14 q0 -30 -16 -54 q-16 -24 -25 -24 q-2 0 -174 76 Z" /><glyph glyph-name="Aacute" unicode="Á" d="M519 -12 q-87 0 -94 28 l-32 139 l-159 0 l-30 -134 q-6 -31 -96 -31 q-48 0 -71 5.5 q-23 5.5 -23 8.5 l178 687 q0 8 137 8 q137 0 137 -8 l172 -688 q0 -7 -46 -11 q-46 -4 -73 -4 ZM259 282 l105 0 l-45 207 l-6 0 l-54 -207 ZM258 729 q-9 0 -23 20 q-18 28 -18 47 q0 19 6 25 q163 90 166 90 q10 0 25 -24 q23 -35 23 -66 q0 -11 -5 -16 q-172 -76 -174 -76 Z" /><glyph glyph-name="Acircumflex" unicode="Â" d="M519 -12 q-87 0 -94 28 l-32 139 l-159 0 l-30 -134 q-6 -31 -96 -31 q-48 0 -71 5.5 q-23 5.5 -23 8.5 l178 687 q0 8 137 8 q137 0 137 -8 l172 -688 q0 -7 -46 -11 q-46 -4 -73 -4 ZM259 282 l105 0 l-45 207 l-6 0 l-54 -207 ZM200 724 q-9 0 -24 22 q-20 30 -20 50 q0 20 6 25 l154 84 q7 4 11 4 q4 0 11 -4 l154 -84 q6 -5 6 -14 q0 -31 -17 -57 q-17 -26 -26 -26 q-2 0 -128 74 q-125 -74 -127 -74 Z" /><glyph glyph-name="Atilde" unicode="Ã" d="M519 -12 q-87 0 -94 28 l-32 139 l-159 0 l-30 -134 q-6 -31 -96 -31 q-48 0 -71 5.5 q-23 5.5 -23 8.5 l178 687 q0 8 137 8 q137 0 137 -8 l172 -688 q0 -7 -46 -11 q-46 -4 -73 -4 ZM259 282 l105 0 l-45 207 l-6 0 l-54 -207 ZM185 753 q-19 5 -35.5 34 q-16.5 29 -16.5 38 q0 9 3 12 q63 63 130 63 q31 0 70 -18.5 q39 -18.5 60 -18.5 q37 1 69 39 q2 1 5 1 q12 0 33 -28 q21 -28 21 -38 q0 -29 -48 -61 q-31 -22 -60 -22 q-4 0 -7 0 q-38 0 -84 20 q-46 20 -56.5 20 q-10.5 0 -17.5 -2 q-7 -2 -12.5 -3.5 q-5.5 -1.5 -13 -6.5 q-7.5 -5 -11.5 -7.5 q-4 -2.5 -14 -10.5 q-10 -8 -15 -11 Z" /><glyph glyph-name="Adieresis" unicode="Ä" d="M519 -12 q-87 0 -94 28 l-32 139 l-159 0 l-30 -134 q-6 -31 -96 -31 q-48 0 -71 5.5 q-23 5.5 -23 8.5 l178 687 q0 8 137 8 q137 0 137 -8 l172 -688 q0 -7 -46 -11 q-46 -4 -73 -4 ZM259 282 l105 0 l-45 207 l-6 0 l-54 -207 ZM282 752 q0 -6 -69.5 -6 q-69.5 0 -69.5 5 l0 140 q0 9 69.5 9 q69.5 0 69.5 -5 l0 -143 ZM512 752 q0 -6 -69.5 -6 q-69.5 0 -69.5 5 l0 140 q0 9 69.5 9 q69.5 0 69.5 -5 l0 -143 Z" /><glyph glyph-name="Aring" unicode="Å" d="M519 -12 q-87 0 -94 28 l-32 139 l-159 0 l-30 -134 q-6 -31 -96 -31 q-48 0 -71 5.5 q-23 5.5 -23 8.5 l178 687 q0 8 137 8 q137 0 137 -8 l172 -688 q0 -7 -46 -11 q-46 -4 -73 -4 ZM259 282 l105 0 l-45 207 l-6 0 l-54 -207 ZM261 751 q-26 26 -26 64 q0 38 26 64 q26 26 64 26 q38 0 64 -26 q26 -26 26 -64 q0 -38 -26 -64 q-26 -26 -64 -26 q-38 0 -64 26 ZM283.5 858.5 q-17.5 -17.5 -17.5 -42.5 q0 -25 17.5 -42.5 q17.5 -17.5 42.5 -17.5 q25 0 42.5 17.5 q17.5 17.5 17.5 42.5 q0 25 -17.5 42.5 q-17.5 17.5 -42.5 17.5 q-25 0 -42.5 -17.5 Z" /><glyph glyph-name="AE" unicode="Æ" d="M775 422 q19 0 19 -70 q0 -21 -4.5 -49.5 q-4.5 -28.5 -16.5 -28.5 l-127 0 l0 -100 l184 0 q17 0 23 -44 q3 -19 3 -40.5 q0 -21.5 -6 -55.5 q-6 -34 -20 -34 l-338 0 q-31 0 -31 32 l0 124 l-159 0 l-64 -134 q-15 -32 -101 -32 q-15 0 -57 2.5 q-42 2.5 -46 11.5 l326 696 l471 0 q21 0 21 -89.5 q0 -89.5 -21 -89.5 l-185 0 l0 -99 l129 0 ZM463 285 l0 239 l-6 0 l-99 -239 l105 0 Z" /><glyph glyph-name="Ccedilla" unicode="Ç" d="M374 -114 q0 -66 -98 -66 q-45 0 -78 16 q-17 5 -17 31 q0 7 1 16 q6 41 27 41 l33 0 q21 0 27 5.5 q6 5.5 6 26.5 l0 37 q-116 15 -188 106 q-72 91 -72 253.5 q0 162.5 87.5 259.5 q87.5 97 218.5 97 q73 0 128.5 -20.5 q55.5 -20.5 55.5 -55.5 q0 -35 -26.5 -86.5 q-26.5 -51.5 -44.5 -51.5 q-5 0 -11.5 5.5 q-6.5 5.5 -30 12 q-23.5 6.5 -40.5 6.5 q-58 0 -93.5 -41 q-35.5 -41 -35.5 -125.5 q0 -84.5 36.5 -125.5 q36.5 -41 92.5 -41 q23 0 51.5 6.5 q28.5 6.5 40.5 18.5 q2 2 8 2 q6 0 22.5 -22.5 q16.5 -22.5 30.5 -59 q14 -36.5 14 -56.5 q0 -35 -50 -57.5 q-50 -22.5 -124 -26.5 q29 -69 29 -105 Z" /><glyph glyph-name="Egrave" unicode="È" d="M313 729 q-2 0 -174 76 q-5 5 -5 14 q0 33 19 62.5 q19 29.5 29 29.5 q3 0 166 -90 q6 -6 6 -14 q0 -30 -16 -54 q-16 -24 -25 -24 ZM370 422 q19 0 19 -70 q0 -21 -4.5 -49.5 q-4.5 -28.5 -16.5 -28.5 l-127 0 l0 -100 l184 0 q17 0 23 -44 q3 -19 3 -40.5 q0 -21.5 -6 -55.5 q-6 -34 -20 -34 l-342 0 q-38 0 -38 31 l0 643 q0 26 23 26 l358 0 q21 0 21 -88.5 q0 -88.5 -21 -88.5 l-185 0 l0 -101 l129 0 Z" /><glyph glyph-name="Eacute" unicode="É" d="M175 729 q-9 0 -23 20 q-18 28 -18 47 q0 19 6 25 q163 90 166 90 q10 0 25 -24 q23 -35 23 -66 q0 -11 -5 -16 q-172 -76 -174 -76 ZM370 422 q19 0 19 -70 q0 -21 -4.5 -49.5 q-4.5 -28.5 -16.5 -28.5 l-127 0 l0 -100 l184 0 q17 0 23 -44 q3 -19 3 -40.5 q0 -21.5 -6 -55.5 q-6 -34 -20 -34 l-342 0 q-38 0 -38 31 l0 643 q0 26 23 26 l358 0 q21 0 21 -88.5 q0 -88.5 -21 -88.5 l-185 0 l0 -101 l129 0 Z" /><glyph glyph-name="Ecircumflex" unicode="Ê" d="M117 724 q-9 0 -24 22 q-20 30 -20 50 q0 20 6 25 l154 84 q7 4 11 4 q4 0 11 -4 l154 -84 q6 -5 6 -14 q0 -31 -17 -57 q-17 -26 -26 -26 q-2 0 -128 74 q-125 -74 -127 -74 ZM370 422 q19 0 19 -70 q0 -21 -4.5 -49.5 q-4.5 -28.5 -16.5 -28.5 l-127 0 l0 -100 l184 0 q17 0 23 -44 q3 -19 3 -40.5 q0 -21.5 -6 -55.5 q-6 -34 -20 -34 l-342 0 q-38 0 -38 31 l0 643 q0 26 23 26 l358 0 q21 0 21 -88.5 q0 -88.5 -21 -88.5 l-185 0 l0 -101 l129 0 Z" /><glyph glyph-name="Edieresis" unicode="Ë" d="M198 752 q0 -6 -69.5 -6 q-69.5 0 -69.5 5 l0 140 q0 9 69.5 9 q69.5 0 69.5 -5 l0 -143 ZM428 752 q0 -6 -69.5 -6 q-69.5 0 -69.5 5 l0 140 q0 9 69.5 9 q69.5 0 69.5 -5 l0 -143 ZM370 422 q19 0 19 -70 q0 -21 -4.5 -49.5 q-4.5 -28.5 -16.5 -28.5 l-127 0 l0 -100 l184 0 q17 0 23 -44 q3 -19 3 -40.5 q0 -21.5 -6 -55.5 q-6 -34 -20 -34 l-342 0 q-38 0 -38 31 l0 643 q0 26 23 26 l358 0 q21 0 21 -88.5 q0 -88.5 -21 -88.5 l-185 0 l0 -101 l129 0 Z" /><glyph glyph-name="Igrave" unicode="Ì" d="M117 172 l0 356 l-71 0 q-17 0 -24 43 q-4 21 -4 43 q0 22 4 43 q7 43 24 43 l336 0 q17 0 24 -43 q3 -21 3 -43 q0 -22 -3 -43 q-7 -43 -24 -43 l-67 0 l0 -356 l70 0 q17 0 24 -43 q3 -21 3 -43 q0 -22 -3 -43 q-7 -43 -24 -43 l-337 0 q-17 0 -24 43 q-3 21 -3 43 q0 22 3 43 q7 43 24 43 l69 0 ZM111 805 q-5 5 -5 14 q0 33 19 62.5 q19 29.5 29 29.5 q3 0 166 -90 q6 -6 6 -14 q0 -30 -16 -54 q-16 -24 -25 -24 q-2 0 -174 76 Z" /><glyph glyph-name="Iacute" unicode="Í" d="M117 172 l0 356 l-71 0 q-17 0 -24 43 q-4 21 -4 43 q0 22 4 43 q7 43 24 43 l336 0 q17 0 24 -43 q3 -21 3 -43 q0 -22 -3 -43 q-7 -43 -24 -43 l-67 0 l0 -356 l70 0 q17 0 24 -43 q3 -21 3 -43 q0 -22 -3 -43 q-7 -43 -24 -43 l-337 0 q-17 0 -24 43 q-3 21 -3 43 q0 22 3 43 q7 43 24 43 l69 0 ZM147 729 q-9 0 -23 20 q-18 28 -18 47 q0 19 6 25 q163 90 166 90 q10 0 25 -24 q23 -35 23 -66 q0 -11 -5 -16 q-172 -76 -174 -76 Z" /><glyph glyph-name="Icircumflex" unicode="Î" d="M117 172 l0 356 l-71 0 q-17 0 -24 43 q-4 21 -4 43 q0 22 4 43 q7 43 24 43 l336 0 q17 0 24 -43 q3 -21 3 -43 q0 -22 -3 -43 q-7 -43 -24 -43 l-67 0 l0 -356 l70 0 q17 0 24 -43 q3 -21 3 -43 q0 -22 -3 -43 q-7 -43 -24 -43 l-337 0 q-17 0 -24 43 q-3 21 -3 43 q0 22 3 43 q7 43 24 43 l69 0 ZM89 724 q-9 0 -24 22 q-20 30 -20 50 q0 20 6 25 l154 84 q7 4 11 4 q4 0 11 -4 l154 -84 q6 -5 6 -14 q0 -31 -17 -57 q-17 -26 -26 -26 q-2 0 -128 74 q-125 -74 -127 -74 Z" /><glyph glyph-name="Idieresis" unicode="Ï" d="M171 752 q0 -6 -69.5 -6 q-69.5 0 -69.5 5 l0 140 q0 9 69.5 9 q69.5 0 69.5 -5 l0 -143 ZM401 752 q0 -6 -69.5 -6 q-69.5 0 -69.5 5 l0 140 q0 9 69.5 9 q69.5 0 69.5 -5 l0 -143 ZM117 172 l0 356 l-71 0 q-17 0 -24 43 q-4 21 -4 43 q0 22 4 43 q7 43 24 43 l336 0 q17 0 24 -43 q3 -21 3 -43 q0 -22 -3 -43 q-7 -43 -24 -43 l-67 0 l0 -356 l70 0 q17 0 24 -43 q3 -21 3 -43 q0 -22 -3 -43 q-7 -43 -24 -43 l-337 0 q-17 0 -24 43 q-3 21 -3 43 q0 22 3 43 q7 43 24 43 l69 0 Z" /><glyph glyph-name="Eth" unicode="Ð" d="M60 26 l0 274 l-43 0 q-18 0 -26 29 q-4 15 -4 29 q0 14 4 29 q8 29 26 29 l43 0 l0 262 q0 22 17 22 l195 0 q159 0 241.5 -80 q82.5 -80 82.5 -252 q0 -368 -314 -368 l-198 0 q-24 0 -24 26 ZM290 300 l-48 0 l0 -79 q0 -21 3.5 -26.5 q3.5 -5.5 17.5 -5.5 q71 0 101.5 40 q30.5 40 30.5 136 q0 96 -33 125.5 q-33 29.5 -100 29.5 l-20 0 l0 -104 l48 0 q18 0 26 -29 q4 -15 4 -29 q0 -14 -4 -29 q-8 -29 -26 -29 Z" /><glyph glyph-name="Ntilde" unicode="Ñ" d="M186 753 q-19 5 -35.5 34 q-16.5 29 -16.5 38 q0 9 3 12 q63 63 130 63 q31 0 70 -18.5 q39 -18.5 60 -18.5 q37 1 69 39 q2 1 5 1 q12 0 33 -28 q21 -28 21 -38 q0 -29 -47 -61 q-32 -22 -61 -22 q-4 0 -7 0 q-38 0 -84 20 q-46 20 -56.5 20 q-10.5 0 -17.5 -2 q-7 -2 -12.5 -3.5 q-5.5 -1.5 -13 -6.5 q-7.5 -5 -11.5 -7.5 q-4 -2.5 -14 -10.5 q-10 -8 -15 -11 ZM591 12 q0 -21 -91.5 -21 q-91.5 0 -99.5 15 l-172 322 l0 -317 q0 -18 -92.5 -18 q-92.5 0 -92.5 18 l0 685 q0 15 77 15 q30 0 70.5 -5.5 q40.5 -5.5 49.5 -20.5 l165 -318 l0 320 q0 19 93 19 q93 0 93 -19 l0 -675 Z" /><glyph glyph-name="Ograve" unicode="Ò" d="M417 729 q-2 0 -174 76 q-5 5 -5 14 q0 33 19 62.5 q19 29.5 29 29.5 q3 0 166 -90 q6 -6 6 -14 q0 -30 -16 -54 q-16 -24 -25 -24 ZM347.5 -10 q-140.5 0 -229 92 q-88.5 92 -88.5 268.5 q0 176.5 89.5 267.5 q89.5 91 231 91 q141.5 0 228.5 -89.5 q87 -89.5 87 -271 q0 -181.5 -89 -270 q-89 -88.5 -229.5 -88.5 ZM348 517 q-48 0 -80.5 -44 q-32.5 -44 -32.5 -123.5 q0 -79.5 31 -122 q31 -42.5 81.5 -42.5 q50.5 0 82 43 q31.5 43 31.5 123 q0 80 -32.5 123 q-32.5 43 -80.5 43 Z" /><glyph glyph-name="Oacute" unicode="Ó" d="M279 729 q-9 0 -23 20 q-18 28 -18 47 q0 19 6 25 q163 90 166 90 q10 0 25 -24 q23 -35 23 -66 q0 -11 -5 -16 q-172 -76 -174 -76 ZM347.5 -10 q-140.5 0 -229 92 q-88.5 92 -88.5 268.5 q0 176.5 89.5 267.5 q89.5 91 231 91 q141.5 0 228.5 -89.5 q87 -89.5 87 -271 q0 -181.5 -89 -270 q-89 -88.5 -229.5 -88.5 ZM348 517 q-48 0 -80.5 -44 q-32.5 -44 -32.5 -123.5 q0 -79.5 31 -122 q31 -42.5 81.5 -42.5 q50.5 0 82 43 q31.5 43 31.5 123 q0 80 -32.5 123 q-32.5 43 -80.5 43 Z" /><glyph glyph-name="Ocircumflex" unicode="Ô" d="M221 724 q-9 0 -24 22 q-20 30 -20 50 q0 20 6 25 l154 84 q7 4 11 4 q4 0 11 -4 l154 -84 q6 -5 6 -14 q0 -31 -17 -57 q-17 -26 -26 -26 q-2 0 -128 74 q-125 -74 -127 -74 ZM347.5 -10 q-140.5 0 -229 92 q-88.5 92 -88.5 268.5 q0 176.5 89.5 267.5 q89.5 91 231 91 q141.5 0 228.5 -89.5 q87 -89.5 87 -271 q0 -181.5 -89 -270 q-89 -88.5 -229.5 -88.5 ZM348 517 q-48 0 -80.5 -44 q-32.5 -44 -32.5 -123.5 q0 -79.5 31 -122 q31 -42.5 81.5 -42.5 q50.5 0 82 43 q31.5 43 31.5 123 q0 80 -32.5 123 q-32.5 43 -80.5 43 Z" /><glyph glyph-name="Otilde" unicode="Õ" d="M205 753 q-19 5 -35.5 34 q-16.5 29 -16.5 38 q0 9 3 12 q63 63 130 63 q31 0 70 -18.5 q39 -18.5 60 -18.5 q37 1 69 39 q2 1 5 1 q12 0 33 -28 q21 -28 21 -38 q0 -29 -48 -61 q-31 -22 -60 -22 q-4 0 -7 0 q-38 0 -84 20 q-46 20 -56.5 20 q-10.5 0 -17.5 -2 q-7 -2 -12.5 -3.5 q-5.5 -1.5 -13 -6.5 q-7.5 -5 -11.5 -7.5 q-4 -2.5 -14 -10.5 q-10 -8 -15 -11 ZM347.5 -10 q-140.5 0 -229 92 q-88.5 92 -88.5 268.5 q0 176.5 89.5 267.5 q89.5 91 231 91 q141.5 0 228.5 -89.5 q87 -89.5 87 -271 q0 -181.5 -89 -270 q-89 -88.5 -229.5 -88.5 ZM348 517 q-48 0 -80.5 -44 q-32.5 -44 -32.5 -123.5 q0 -79.5 31 -122 q31 -42.5 81.5 -42.5 q50.5 0 82 43 q31.5 43 31.5 123 q0 80 -32.5 123 q-32.5 43 -80.5 43 Z" /><glyph glyph-name="Odieresis" unicode="Ö" d="M302 752 q0 -6 -69.5 -6 q-69.5 0 -69.5 5 l0 140 q0 9 69.5 9 q69.5 0 69.5 -5 l0 -143 ZM532 752 q0 -6 -69.5 -6 q-69.5 0 -69.5 5 l0 140 q0 9 69.5 9 q69.5 0 69.5 -5 l0 -143 ZM347.5 -10 q-140.5 0 -229 92 q-88.5 92 -88.5 268.5 q0 176.5 89.5 267.5 q89.5 91 231 91 q141.5 0 228.5 -89.5 q87 -89.5 87 -271 q0 -181.5 -89 -270 q-89 -88.5 -229.5 -88.5 ZM348 517 q-48 0 -80.5 -44 q-32.5 -44 -32.5 -123.5 q0 -79.5 31 -122 q31 -42.5 81.5 -42.5 q50.5 0 82 43 q31.5 43 31.5 123 q0 80 -32.5 123 q-32.5 43 -80.5 43 Z" /><glyph glyph-name="multiply" unicode="×" d="M108 459 q-6 6 -6 15.5 q0 9.5 11 29 q11 19.5 31 31.5 q20 12 30 12 q10 0 16 -6 l112 -113 l114 114 q6 6 15.5 6 q9.5 0 29.5 -11.5 q20 -11.5 31.5 -31.5 q11.5 -20 11.5 -29.5 q0 -9.5 -6 -15.5 l-114 -114 l113 -113 q6 -6 6 -13.5 q0 -7.5 -5.5 -20.5 q-5.5 -13 -21.5 -28 q-27 -26 -46 -26 q-9 0 -15 6 l-113 113 l-111 -111 q-7 -7 -21 -7 q-14 0 -41 27 q-27 27 -27 41 q0 14 7 21 l111 111 l-112 113 Z" /><glyph glyph-name="Oslash" unicode="Ø" d="M129 71 q-99 97 -99 276.5 q0 179.5 89.5 270.5 q89.5 91 226.5 91 q53 0 106 -14 l43 83 q10 11 21 11 q38 0 68 -26 q17 -14 17 -23 q0 -9 -2 -14 l-44 -85 q111 -95 111 -284.5 q0 -189.5 -89 -278 q-89 -88.5 -234 -88.5 q-58 0 -115 19 l-40 -78 q-7 -12 -21 -12 q-19 0 -42 10.5 q-23 10.5 -35 26 q-12 15.5 -6 28.5 l45 87 ZM348 138 q65 0 105 55 q40 55 40 143.5 q0 88.5 -23 139.5 l-171 -329 q23 -9 49 -9 ZM203 349 q0 -63 15 -106 l164 316 q-20 5 -34 5 q-61 0 -103 -56 q-42 -56 -42 -159 Z" /><glyph glyph-name="Ugrave" unicode="Ù" d="M377 691 q0 20 108.5 20 q108.5 0 108.5 -20 l0 -470 q0 -102 -73 -166.5 q-73 -64.5 -201.5 -64.5 q-128.5 0 -209 66.5 q-80.5 66.5 -80.5 179.5 l0 452 q0 20 108.5 20 q108.5 0 108.5 -20 l0 -441 q0 -20 21 -31 q22 -13 46 -13 q24 0 43.5 11 q19.5 11 19.5 33 l0 444 ZM209 805 q-5 5 -5 14 q0 33 19 62.5 q19 29.5 29 29.5 q3 0 166 -90 q6 -6 6 -14 q0 -30 -16 -54 q-16 -24 -25 -24 q-2 0 -174 76 Z" /><glyph glyph-name="Uacute" unicode="Ú" d="M245 729 q-9 0 -23 20 q-18 28 -18 47 q0 19 6 25 q163 90 166 90 q10 0 25 -24 q23 -35 23 -66 q0 -11 -5 -16 q-172 -76 -174 -76 ZM377 691 q0 20 108.5 20 q108.5 0 108.5 -20 l0 -470 q0 -102 -73 -166.5 q-73 -64.5 -201.5 -64.5 q-128.5 0 -209 66.5 q-80.5 66.5 -80.5 179.5 l0 452 q0 20 108.5 20 q108.5 0 108.5 -20 l0 -441 q0 -20 21 -31 q22 -13 46 -13 q24 0 43.5 11 q19.5 11 19.5 33 l0 444 Z" /><glyph glyph-name="Ucircumflex" unicode="Û" d="M187 724 q-9 0 -24 22 q-20 30 -20 50 q0 20 6 25 l154 84 q7 4 11 4 q4 0 11 -4 l154 -84 q6 -5 6 -14 q0 -31 -17 -57 q-17 -26 -26 -26 q-2 0 -128 74 q-125 -74 -127 -74 ZM377 691 q0 20 108.5 20 q108.5 0 108.5 -20 l0 -470 q0 -102 -73 -166.5 q-73 -64.5 -201.5 -64.5 q-128.5 0 -209 66.5 q-80.5 66.5 -80.5 179.5 l0 452 q0 20 108.5 20 q108.5 0 108.5 -20 l0 -441 q0 -20 21 -31 q22 -13 46 -13 q24 0 43.5 11 q19.5 11 19.5 33 l0 444 Z" /><glyph glyph-name="Udieresis" unicode="Ü" d="M268 752 q0 -6 -69.5 -6 q-69.5 0 -69.5 5 l0 140 q0 9 69.5 9 q69.5 0 69.5 -5 l0 -143 ZM498 752 q0 -6 -69.5 -6 q-69.5 0 -69.5 5 l0 140 q0 9 69.5 9 q69.5 0 69.5 -5 l0 -143 ZM377 691 q0 20 108.5 20 q108.5 0 108.5 -20 l0 -470 q0 -102 -73 -166.5 q-73 -64.5 -201.5 -64.5 q-128.5 0 -209 66.5 q-80.5 66.5 -80.5 179.5 l0 452 q0 20 108.5 20 q108.5 0 108.5 -20 l0 -441 q0 -20 21 -31 q22 -13 46 -13 q24 0 43.5 11 q19.5 11 19.5 33 l0 444 Z" /><glyph glyph-name="Yacute" unicode="Ý" d="M238 729 q-9 0 -23 20 q-18 28 -18 47 q0 19 6 25 q163 90 166 90 q10 0 25 -24 q23 -35 23 -66 q0 -11 -5 -16 q-172 -76 -174 -76 ZM398 674 q13 35 128 35 q29 0 68.5 -4 q39.5 -4 36.5 -10 l-208 -445 l0 -232 q0 -17 -55 -24 q-28 -4 -55 -4 q-27 0 -54 3 q-55 7 -55 25 l0 226 l-215 449 q-4 6 41 11.5 q45 5.5 76 5.5 q123 0 135 -36 l73 -218 l84 218 Z" /><glyph glyph-name="Thorn" unicode="Þ" d="M46 699 q0 14 93 14 q99 -4 99 -13 l0 -80 q162 0 228 -60 q66 -60 66 -178 q0 -96 -62 -176 q-31 -40 -91 -64 q-60 -24 -140 -24 l0 -104 q0 -15 -49 -21 q-25 -3 -49 -3 q-95 0 -95 23 l0 686 ZM239 446 l0 -158 l13 0 q35 0 59 22 q24 22 24 62 q0 40 -16.5 57 q-16.5 17 -58.5 17 l-21 0 Z" /><glyph glyph-name="germandbls" unicode="ß" d="M428 -10 q-60 0 -99.5 25 q-39.5 25 -39.5 63 q0 44 16 100 q33 -15 65 -15 q66 0 66 48 q0 37 -25 52 q-25 15 -83 18 q-25 19 -25 63 q0 21 7 41.5 q7 20.5 21 20.5 l29 1 q3 4 9.5 25 q6.5 21 6.5 55 q0 34 -30 49 q-14 8 -29 8 q-15 0 -31 -9 q-29 -17 -29 -57 l1 -616 q0 -12 -88 -12 q-88 0 -88 12 l0 645 q0 101 66.5 152 q66.5 51 178 51 q111.5 0 170 -44 q58.5 -44 58.5 -129.5 q0 -85.5 -56 -181.5 q65 -31 85 -51 q43 -42 43 -122 q0 -80 -52.5 -136 q-52.5 -56 -146.5 -56 Z" /><glyph glyph-name="agrave" unicode="à" d="M108 363 q-28 50 -28 81.5 q0 31.5 17 40.5 q57 25 156.5 25 q99.5 0 140.5 -46.5 q41 -46.5 41 -137.5 l0 -158 l34 0 q17 0 26.5 -20 q9.5 -20 9.5 -55 q0 -35 -17.5 -69 q-17.5 -34 -47.5 -34 q-54 0 -87 29 q-15 12 -23 29 q-46 -58 -143 -58 q-73 0 -123 52 q-50 52 -50 123 q0 163 195 163 l55 0 l0 10 q0 26 -8.5 33.5 q-8.5 7.5 -39.5 7.5 q-38 0 -108 -16 ZM188 179 q0 -22 12 -33.5 q12 -11.5 30.5 -11.5 q18.5 0 33.5 15 l0 77 l-28 0 q-48 0 -48 -47 ZM148 605 q-5 5 -5 14 q0 33 19 62.5 q19 29.5 29 29.5 q3 0 166 -90 q6 -6 6 -14 q0 -30 -16 -54 q-16 -24 -25 -24 q-2 0 -174 76 Z" /><glyph glyph-name="aacute" unicode="á" d="M108 363 q-28 50 -28 81.5 q0 31.5 17 40.5 q57 25 156.5 25 q99.5 0 140.5 -46.5 q41 -46.5 41 -137.5 l0 -158 l34 0 q17 0 26.5 -20 q9.5 -20 9.5 -55 q0 -35 -17.5 -69 q-17.5 -34 -47.5 -34 q-54 0 -87 29 q-15 12 -23 29 q-46 -58 -143 -58 q-73 0 -123 52 q-50 52 -50 123 q0 163 195 163 l55 0 l0 10 q0 26 -8.5 33.5 q-8.5 7.5 -39.5 7.5 q-38 0 -108 -16 ZM188 179 q0 -22 12 -33.5 q12 -11.5 30.5 -11.5 q18.5 0 33.5 15 l0 77 l-28 0 q-48 0 -48 -47 ZM177 529 q-9 0 -23 20 q-18 28 -18 47 q0 19 6 25 q163 90 166 90 q10 0 25 -24 q23 -35 23 -66 q0 -11 -5 -16 q-172 -76 -174 -76 Z" /><glyph glyph-name="acircumflex" unicode="â" d="M116 524 q-9 0 -24 22 q-20 30 -20 50 q0 20 6 25 l154 84 q7 4 11 4 q4 0 11 -4 l154 -84 q6 -5 6 -14 q0 -31 -17 -57 q-17 -26 -26 -26 q-2 0 -128 74 q-125 -74 -127 -74 ZM108 363 q-28 50 -28 81.5 q0 31.5 17 40.5 q57 25 156.5 25 q99.5 0 140.5 -46.5 q41 -46.5 41 -137.5 l0 -158 l34 0 q17 0 26.5 -20 q9.5 -20 9.5 -55 q0 -35 -17.5 -69 q-17.5 -34 -47.5 -34 q-54 0 -87 29 q-15 12 -23 29 q-46 -58 -143 -58 q-73 0 -123 52 q-50 52 -50 123 q0 163 195 163 l55 0 l0 10 q0 26 -8.5 33.5 q-8.5 7.5 -39.5 7.5 q-38 0 -108 -16 ZM188 179 q0 -22 12 -33.5 q12 -11.5 30.5 -11.5 q18.5 0 33.5 15 l0 77 l-28 0 q-48 0 -48 -47 Z" /><glyph glyph-name="atilde" unicode="ã" d="M110 553 q-19 5 -35.5 34 q-16.5 29 -16.5 38 q0 9 3 12 q63 63 130 63 q31 0 70 -18.5 q39 -18.5 60 -18.5 q37 1 69 39 q2 1 5 1 q12 0 33 -28 q21 -28 21 -38 q0 -29 -47 -61 q-32 -22 -61 -22 q-4 0 -7 0 q-38 0 -84 20 q-46 20 -56.5 20 q-10.5 0 -17.5 -2 q-7 -2 -12.5 -3.5 q-5.5 -1.5 -13 -6.5 q-7.5 -5 -11.5 -7.5 q-4 -2.5 -14 -10.5 q-10 -8 -15 -11 ZM108 363 q-28 50 -28 81.5 q0 31.5 17 40.5 q57 25 156.5 25 q99.5 0 140.5 -46.5 q41 -46.5 41 -137.5 l0 -158 l34 0 q17 0 26.5 -20 q9.5 -20 9.5 -55 q0 -35 -17.5 -69 q-17.5 -34 -47.5 -34 q-54 0 -87 29 q-15 12 -23 29 q-46 -58 -143 -58 q-73 0 -123 52 q-50 52 -50 123 q0 163 195 163 l55 0 l0 10 q0 26 -8.5 33.5 q-8.5 7.5 -39.5 7.5 q-38 0 -108 -16 ZM188 179 q0 -22 12 -33.5 q12 -11.5 30.5 -11.5 q18.5 0 33.5 15 l0 77 l-28 0 q-48 0 -48 -47 Z" /><glyph glyph-name="adieresis" unicode="ä" d="M202 552 q0 -6 -69.5 -6 q-69.5 0 -69.5 5 l0 140 q0 9 69.5 9 q69.5 0 69.5 -5 l0 -143 ZM432 552 q0 -6 -69.5 -6 q-69.5 0 -69.5 5 l0 140 q0 9 69.5 9 q69.5 0 69.5 -5 l0 -143 ZM108 363 q-28 50 -28 81.5 q0 31.5 17 40.5 q57 25 156.5 25 q99.5 0 140.5 -46.5 q41 -46.5 41 -137.5 l0 -158 l34 0 q17 0 26.5 -20 q9.5 -20 9.5 -55 q0 -35 -17.5 -69 q-17.5 -34 -47.5 -34 q-54 0 -87 29 q-15 12 -23 29 q-46 -58 -143 -58 q-73 0 -123 52 q-50 52 -50 123 q0 163 195 163 l55 0 l0 10 q0 26 -8.5 33.5 q-8.5 7.5 -39.5 7.5 q-38 0 -108 -16 ZM188 179 q0 -22 12 -33.5 q12 -11.5 30.5 -11.5 q18.5 0 33.5 15 l0 77 l-28 0 q-48 0 -48 -47 Z" /><glyph glyph-name="aring" unicode="å" d="M188 555 q-26 26 -26 64 q0 38 26 64 q26 26 64 26 q38 0 64 -26 q26 -26 26 -64 q0 -38 -26 -64 q-26 -26 -64 -26 q-38 0 -64 26 ZM210.5 662.5 q-17.5 -17.5 -17.5 -42.5 q0 -25 17.5 -42.5 q17.5 -17.5 42.5 -17.5 q25 0 42.5 17.5 q17.5 17.5 17.5 42.5 q0 25 -17.5 42.5 q-17.5 17.5 -42.5 17.5 q-25 0 -42.5 -17.5 ZM108 363 q-28 50 -28 81.5 q0 31.5 17 40.5 q57 25 156.5 25 q99.5 0 140.5 -46.5 q41 -46.5 41 -137.5 l0 -158 l34 0 q17 0 26.5 -20 q9.5 -20 9.5 -55 q0 -35 -17.5 -69 q-17.5 -34 -47.5 -34 q-54 0 -87 29 q-15 12 -23 29 q-46 -58 -143 -58 q-73 0 -123 52 q-50 52 -50 123 q0 163 195 163 l55 0 l0 10 q0 26 -8.5 33.5 q-8.5 7.5 -39.5 7.5 q-38 0 -108 -16 ZM188 179 q0 -22 12 -33.5 q12 -11.5 30.5 -11.5 q18.5 0 33.5 15 l0 77 l-28 0 q-48 0 -48 -47 Z" /><glyph glyph-name="ae" unicode="æ" d="M610 147 q32 -50 32 -80.5 q0 -30.5 -18 -40.5 q-63 -36 -154.5 -36 q-91.5 0 -152.5 53 q-46 -53 -137 -53 q-71 0 -118.5 49.5 q-47.5 49.5 -47.5 118.5 q0 160 187 160 l54 0 l0 9 q0 24 -8.5 32 q-8.5 8 -38.5 8 q-30 0 -51.5 -4.5 q-21.5 -4.5 -33.5 -7 q-12 -2.5 -18 -4.5 q-28 47 -28 86 q0 23 17 32 q52 24 145 24 q57 0 110 -32 q72 37 116 37 q94 0 147 -50 q53 -50 53 -120 q0 -160 -180 -160 l-66 0 l0 -14 q4 -22 19 -30 q15 -8 43 -8 q66 0 129 31 ZM227 216 q-46 0 -46 -43.5 q0 -43.5 40 -43.5 q18 0 34 14 l0 73 l-28 0 ZM502 310 q0 40 -40 40 q-36 0 -43 -33 l0 -40 l51 0 q32 0 32 33 Z" /><glyph glyph-name="ccedilla" unicode="ç" d="M209 248 q0 -98 74 -98 q48 0 80 19 q15 0 24.5 -51.5 q9.5 -51.5 9.5 -70 q0 -18.5 -5 -24.5 q-40 -24 -97 -30 q12 -46 12 -76 q0 -30 -9 -47 q-25 -47 -93 -47 q-41 0 -73 17 q-12 6 -12 33 q0 7 0 17 q5 41 23 41 l33 0 q21 0 27 5.5 q6 5.5 6 26.5 l0 31 q-79 13 -131 79.5 q-52 66.5 -52 178.5 q0 112 63.5 185 q63.5 73 169 73 q105.5 0 146.5 -51 q9 -11 9 -32.5 q0 -21.5 -8 -52.5 q-18 -64 -47 -74 q-4 -1 -11.5 -1 q-7.5 0 -18.5 12 q-39 39 -62.5 39 q-23.5 0 -40.5 -24 q-17 -24 -17 -78 Z" /><glyph glyph-name="egrave" unicode="è" d="M316 529 q-2 0 -174 76 q-5 5 -5 14 q0 33 19 62.5 q19 29.5 29 29.5 q3 0 166 -90 q6 -6 6 -14 q0 -30 -16 -54 q-16 -24 -25 -24 ZM423 27 q-63 -37 -162 -37 q-99 0 -167 67.5 q-68 67.5 -68 187 q0 119.5 65.5 192.5 q65.5 73 165.5 73 q100 0 154.5 -51 q54.5 -51 54.5 -124 q0 -162 -186 -162 l-69 0 q0 -30 16.5 -41.5 q16.5 -11.5 48.5 -11.5 q70 0 133 32 q1 1 9 -14 q24 -43 24 -72.5 q0 -29.5 -19 -38.5 ZM298 316 q0 42 -41 42 q-19 0 -32.5 -11.5 q-13.5 -11.5 -13.5 -33.5 l0 -31 l54 0 q33 0 33 34 Z" /><glyph glyph-name="eacute" unicode="é" d="M178 529 q-9 0 -23 20 q-18 28 -18 47 q0 19 6 25 q163 90 166 90 q10 0 25 -24 q23 -35 23 -66 q0 -11 -5 -16 q-172 -76 -174 -76 ZM423 27 q-63 -37 -162 -37 q-99 0 -167 67.5 q-68 67.5 -68 187 q0 119.5 65.5 192.5 q65.5 73 165.5 73 q100 0 154.5 -51 q54.5 -51 54.5 -124 q0 -162 -186 -162 l-69 0 q0 -30 16.5 -41.5 q16.5 -11.5 48.5 -11.5 q70 0 133 32 q1 1 9 -14 q24 -43 24 -72.5 q0 -29.5 -19 -38.5 ZM298 316 q0 42 -41 42 q-19 0 -32.5 -11.5 q-13.5 -11.5 -13.5 -33.5 l0 -31 l54 0 q33 0 33 34 Z" /><glyph glyph-name="ecircumflex" unicode="ê" d="M120 524 q-9 0 -24 22 q-20 30 -20 50 q0 20 6 25 l154 84 q7 4 11 4 q4 0 11 -4 l154 -84 q6 -5 6 -14 q0 -31 -17 -57 q-17 -26 -26 -26 q-2 0 -128 74 q-125 -74 -127 -74 ZM423 27 q-63 -37 -162 -37 q-99 0 -167 67.5 q-68 67.5 -68 187 q0 119.5 65.5 192.5 q65.5 73 165.5 73 q100 0 154.5 -51 q54.5 -51 54.5 -124 q0 -162 -186 -162 l-69 0 q0 -30 16.5 -41.5 q16.5 -11.5 48.5 -11.5 q70 0 133 32 q1 1 9 -14 q24 -43 24 -72.5 q0 -29.5 -19 -38.5 ZM298 316 q0 42 -41 42 q-19 0 -32.5 -11.5 q-13.5 -11.5 -13.5 -33.5 l0 -31 l54 0 q33 0 33 34 Z" /><glyph glyph-name="edieresis" unicode="ë" d="M201 552 q0 -6 -69.5 -6 q-69.5 0 -69.5 5 l0 140 q0 9 69.5 9 q69.5 0 69.5 -5 l0 -143 ZM431 552 q0 -6 -69.5 -6 q-69.5 0 -69.5 5 l0 140 q0 9 69.5 9 q69.5 0 69.5 -5 l0 -143 ZM423 27 q-63 -37 -162 -37 q-99 0 -167 67.5 q-68 67.5 -68 187 q0 119.5 65.5 192.5 q65.5 73 165.5 73 q100 0 154.5 -51 q54.5 -51 54.5 -124 q0 -162 -186 -162 l-69 0 q0 -30 16.5 -41.5 q16.5 -11.5 48.5 -11.5 q70 0 133 32 q1 1 9 -14 q24 -43 24 -72.5 q0 -29.5 -19 -38.5 ZM298 316 q0 42 -41 42 q-19 0 -32.5 -11.5 q-13.5 -11.5 -13.5 -33.5 l0 -31 l54 0 q33 0 33 34 Z" /><glyph glyph-name="igrave" unicode="ì" d="M201 529 q-2 0 -174 76 q-5 5 -5 14 q0 33 19 62.5 q19 29.5 29 29.5 q3 0 166 -90 q6 -6 6 -14 q0 -30 -16 -54 q-16 -24 -25 -24 ZM222 6 q0 -8 -88.5 -8 q-88.5 0 -88.5 7 l0 475 q0 6 88.5 6 q88.5 0 88.5 -5 l0 -475 Z" /><glyph glyph-name="iacute" unicode="í" d="M63 529 q-9 0 -23 20 q-18 28 -18 47 q0 19 6 25 q163 90 166 90 q10 0 25 -24 q23 -35 23 -66 q0 -11 -5 -16 q-172 -76 -174 -76 ZM222 6 q0 -8 -88.5 -8 q-88.5 0 -88.5 7 l0 475 q0 6 88.5 6 q88.5 0 88.5 -5 l0 -475 Z" /><glyph glyph-name="icircumflex" unicode="î" d="M5 524 q-9 0 -24 22 q-20 30 -20 50 q0 20 6 25 l154 84 q7 4 11 4 q4 0 11 -4 l154 -84 q6 -5 6 -14 q0 -31 -17 -57 q-17 -26 -26 -26 q-2 0 -128 74 q-125 -74 -127 -74 ZM222 6 q0 -8 -88.5 -8 q-88.5 0 -88.5 7 l0 475 q0 6 88.5 6 q88.5 0 88.5 -5 l0 -475 Z" /><glyph glyph-name="idieresis" unicode="ï" d="M86 552 q0 -6 -69.5 -6 q-69.5 0 -69.5 5 l0 140 q0 9 69.5 9 q69.5 0 69.5 -5 l0 -143 ZM316 552 q0 -6 -69.5 -6 q-69.5 0 -69.5 5 l0 140 q0 9 69.5 9 q69.5 0 69.5 -5 l0 -143 ZM222 6 q0 -8 -88.5 -8 q-88.5 0 -88.5 7 l0 475 q0 6 88.5 6 q88.5 0 88.5 -5 l0 -475 Z" /><glyph glyph-name="eth" unicode="ð" d="M288 489 l-159 -32 q-14 0 -23 13.5 q-9 13.5 -9 29.5 q0 28 23 32 l117 24 q-25 29 -62 64 q59 89 113 89 q62 0 141 -114 l84 17 l4 0 q14 0 23 -13.5 q9 -13.5 9 -29.5 q0 -28 -22 -32 l-57 -12 q50 -98 50 -237 q0 -139 -67 -218.5 q-67 -79.5 -193 -79.5 q-104 0 -162 60.5 q-58 60.5 -58 156.5 q0 96 55.5 144.5 q55.5 48.5 140.5 48.5 q44 0 95 -14 q-4 43 -43 103 ZM213 215 q0 -61 49 -61 q35 0 51 25 q16 25 16 63 q0 12 -1 19 q-20 14 -64 14 q-24 0 -37.5 -16.5 q-13.5 -16.5 -13.5 -43.5 Z" /><glyph glyph-name="ntilde" unicode="ñ" d="M136 553 q-19 5 -35.5 34 q-16.5 29 -16.5 38 q0 9 3 12 q63 63 130 63 q31 0 70 -18.5 q39 -18.5 60 -18.5 q37 1 69 39 q2 1 5 1 q12 0 33 -28 q21 -28 21 -38 q0 -29 -47 -61 q-32 -22 -61 -22 q-4 0 -7 0 q-38 0 -84 20 q-46 20 -56.5 20 q-10.5 0 -17.5 -2 q-7 -2 -12.5 -3.5 q-5.5 -1.5 -13 -6.5 q-7.5 -5 -11.5 -7.5 q-4 -2.5 -14 -10.5 q-10 -8 -15 -11 ZM254 6 q0 -7 -72 -7 q-100 3 -100 11 l0 324 l-26 0 q-26 0 -34 44 q-2 13 -2 26 q0 31 12 62 q18 44 56 44 q38 0 68 -18 q30 -18 40 -36 q63 54 150 54 q87 0 126 -47 q39 -47 39 -154 l0 -300 q0 -12 -85.5 -12 q-85.5 0 -85.5 12 l0 289 q0 50 -35 50 q-10 0 -28 -8.5 q-18 -8.5 -23 -12.5 l0 -321 Z" /><glyph glyph-name="ograve" unicode="ò" d="M88.5 59 q-62.5 69 -62.5 191 q0 122 62.5 191 q62.5 69 168.5 69 q106 0 168 -69 q62 -69 62 -191 q0 -122 -62 -191 q-62 -69 -168 -69 q-106 0 -168.5 69 ZM257.5 343 q-56.5 0 -56.5 -92 q0 -92 56.5 -92 q56.5 0 56.5 92 q0 92 -56.5 92 ZM143 605 q-5 5 -5 14 q0 33 19 62.5 q19 29.5 29 29.5 q3 0 166 -90 q6 -6 6 -14 q0 -30 -16 -54 q-16 -24 -25 -24 q-2 0 -174 76 Z" /><glyph glyph-name="oacute" unicode="ó" d="M88.5 59 q-62.5 69 -62.5 191 q0 122 62.5 191 q62.5 69 168.5 69 q106 0 168 -69 q62 -69 62 -191 q0 -122 -62 -191 q-62 -69 -168 -69 q-106 0 -168.5 69 ZM257.5 343 q-56.5 0 -56.5 -92 q0 -92 56.5 -92 q56.5 0 56.5 92 q0 92 -56.5 92 ZM179 529 q-9 0 -23 20 q-18 28 -18 47 q0 19 6 25 q163 90 166 90 q10 0 25 -24 q23 -35 23 -66 q0 -11 -5 -16 q-172 -76 -174 -76 Z" /><glyph glyph-name="ocircumflex" unicode="ô" d="M88.5 59 q-62.5 69 -62.5 191 q0 122 62.5 191 q62.5 69 168.5 69 q106 0 168 -69 q62 -69 62 -191 q0 -122 -62 -191 q-62 -69 -168 -69 q-106 0 -168.5 69 ZM257.5 343 q-56.5 0 -56.5 -92 q0 -92 56.5 -92 q56.5 0 56.5 92 q0 92 -56.5 92 ZM121 524 q-9 0 -24 22 q-20 30 -20 50 q0 20 6 25 l154 84 q7 4 11 4 q4 0 11 -4 l154 -84 q6 -5 6 -14 q0 -31 -17 -57 q-17 -26 -26 -26 q-2 0 -128 74 q-125 -74 -127 -74 Z" /><glyph glyph-name="otilde" unicode="õ" d="M106 553 q-19 5 -35.5 34 q-16.5 29 -16.5 38 q0 9 3 12 q63 63 130 63 q31 0 70 -18.5 q39 -18.5 60 -18.5 q37 1 69 39 q2 1 5 1 q12 0 33 -28 q21 -28 21 -38 q0 -29 -47 -61 q-32 -22 -61 -22 q-4 0 -7 0 q-38 0 -84 20 q-46 20 -56.5 20 q-10.5 0 -17.5 -2 q-7 -2 -12.5 -3.5 q-5.5 -1.5 -13 -6.5 q-7.5 -5 -11.5 -7.5 q-4 -2.5 -14 -10.5 q-10 -8 -15 -11 ZM88.5 59 q-62.5 69 -62.5 191 q0 122 62.5 191 q62.5 69 168.5 69 q106 0 168 -69 q62 -69 62 -191 q0 -122 -62 -191 q-62 -69 -168 -69 q-106 0 -168.5 69 ZM257.5 343 q-56.5 0 -56.5 -92 q0 -92 56.5 -92 q56.5 0 56.5 92 q0 92 -56.5 92 Z" /><glyph glyph-name="odieresis" unicode="ö" d="M203 552 q0 -6 -69.5 -6 q-69.5 0 -69.5 5 l0 140 q0 9 69.5 9 q69.5 0 69.5 -5 l0 -143 ZM433 552 q0 -6 -69.5 -6 q-69.5 0 -69.5 5 l0 140 q0 9 69.5 9 q69.5 0 69.5 -5 l0 -143 ZM88.5 59 q-62.5 69 -62.5 191 q0 122 62.5 191 q62.5 69 168.5 69 q106 0 168 -69 q62 -69 62 -191 q0 -122 -62 -191 q-62 -69 -168 -69 q-106 0 -168.5 69 ZM257.5 343 q-56.5 0 -56.5 -92 q0 -92 56.5 -92 q56.5 0 56.5 92 q0 92 -56.5 92 Z" /><glyph glyph-name="divide" unicode="÷" d="M374 93 q0 -5 -73.5 -5 q-73.5 0 -73.5 4 l0 140 q0 7 73.5 7 q73.5 0 73.5 -4 l0 -142 ZM374 462 q0 -6 -73.5 -6 q-73.5 0 -73.5 6 l0 140 q0 7 73.5 7 q73.5 0 73.5 -4 l0 -143 ZM527 290 l-454 0 q-21 0 -30 29 q-5 15 -5 29 q0 14 5 29 q9 29 30 29 l454 0 q21 0 30 -29 q5 -15 5 -29 q0 -14 -5 -29 q-9 -29 -30 -29 Z" /><glyph glyph-name="oslash" unicode="ø" d="M90 56 q-64 70 -64 193 q0 123 62.5 192 q62.5 69 168.5 69 q43 0 79 -12 l30 53 q6 12 19.5 12 q13.5 0 25 -5 q11.5 -5 23.5 -14 q28 -20 17 -42 l-31 -56 q67 -69 67 -193.5 q0 -124.5 -62 -193.5 q-62 -69 -168 -69 q-45 0 -82 12 l-16 -28 q-9 -11 -19 -11 q-34 0 -58 26 q-13 13 -13 21.5 q0 8.5 4 14.5 l17 31 ZM362 251 q0 44 -10 73 l-123 -223 q12 -4 28 -4 q41 0 73 35.5 q32 35.5 32 118.5 ZM154 251 q0 -43 7 -68 l122 218 q-11 4 -26 4 q-41 0 -72 -35 q-31 -35 -31 -119 Z" /><glyph glyph-name="ugrave" unicode="ù" d="M351 529 q-2 0 -174 76 q-5 5 -5 14 q0 33 19 62.5 q19 29.5 29 29.5 q3 0 166 -90 q6 -6 6 -14 q0 -30 -16 -54 q-16 -24 -25 -24 ZM40 494 q0 11 86 11 q86 0 86 -11 l0 -292 q0 -50 32 -50 q24 0 54 21 l0 321 q0 10 85 10 q85 0 85 -10 l0 -328 l26 0 q34 0 34 -65 q0 -33 -14 -67 q-20 -44 -54 -44 q-67 0 -99 55 l-1 -1 q-61 -54 -131 -54 q-97 0 -143 48.5 q-46 48.5 -46 160.5 l0 295 Z" /><glyph glyph-name="uacute" unicode="ú" d="M40 494 q0 11 86 11 q86 0 86 -11 l0 -292 q0 -50 32 -50 q24 0 54 21 l0 321 q0 10 85 10 q85 0 85 -10 l0 -328 l26 0 q34 0 34 -65 q0 -33 -14 -67 q-20 -44 -54 -44 q-67 0 -99 55 l-1 -1 q-61 -54 -131 -54 q-97 0 -143 48.5 q-46 48.5 -46 160.5 l0 295 ZM213 529 q-9 0 -23 20 q-18 28 -18 47 q0 19 6 25 q163 90 166 90 q10 0 25 -24 q23 -35 23 -66 q0 -11 -5 -16 q-172 -76 -174 -76 Z" /><glyph glyph-name="ucircumflex" unicode="û" d="M125 524 q-9 0 -24 22 q-20 30 -20 50 q0 20 6 25 l154 84 q7 4 11 4 q4 0 11 -4 l154 -84 q6 -5 6 -14 q0 -31 -17 -57 q-17 -26 -26 -26 q-2 0 -128 74 q-125 -74 -127 -74 ZM40 494 q0 11 86 11 q86 0 86 -11 l0 -292 q0 -50 32 -50 q24 0 54 21 l0 321 q0 10 85 10 q85 0 85 -10 l0 -328 l26 0 q34 0 34 -65 q0 -33 -14 -67 q-20 -44 -54 -44 q-67 0 -99 55 l-1 -1 q-61 -54 -131 -54 q-97 0 -143 48.5 q-46 48.5 -46 160.5 l0 295 Z" /><glyph glyph-name="udieresis" unicode="ü" d="M211 552 q0 -6 -69.5 -6 q-69.5 0 -69.5 5 l0 140 q0 9 69.5 9 q69.5 0 69.5 -5 l0 -143 ZM441 552 q0 -6 -69.5 -6 q-69.5 0 -69.5 5 l0 140 q0 9 69.5 9 q69.5 0 69.5 -5 l0 -143 ZM40 494 q0 11 86 11 q86 0 86 -11 l0 -292 q0 -50 32 -50 q24 0 54 21 l0 321 q0 10 85 10 q85 0 85 -10 l0 -328 l26 0 q34 0 34 -65 q0 -33 -14 -67 q-20 -44 -54 -44 q-67 0 -99 55 l-1 -1 q-61 -54 -131 -54 q-97 0 -143 48.5 q-46 48.5 -46 160.5 l0 295 Z" /><glyph glyph-name="yacute" unicode="ý" d="M10 495 q0 11 91.5 11 q91.5 0 94.5 -10 l68 -230 l67 231 q4 8 65.5 8 q61.5 0 97.5 -2 q36 -2 32 -10 l-235 -669 q-1 -6 -54.5 -6 q-53.5 0 -99.5 3.5 q-46 3.5 -44 8.5 l87 210 l-170 455 ZM193 529 q-9 0 -23 20 q-18 28 -18 47 q0 19 6 25 q163 90 166 90 q10 0 25 -24 q23 -35 23 -66 q0 -11 -5 -16 q-172 -76 -174 -76 Z" /><glyph glyph-name="thorn" unicode="þ" d="M326 510 q210 0 210 -241 q0 -130 -63.5 -199.5 q-63.5 -69.5 -174.5 -69.5 q-12 0 -34 2 l0 -167 q0 -26 -83 -26 q-36 0 -62.5 7 q-26.5 7 -26.5 19 l0 862 q0 12 86.5 12 q86.5 0 86.5 -13 l0 -194 q43 8 61 8 ZM354 251 q0 104 -54 104 q-18 0 -35 -12 l0 -191 q16 -7 28 -7 q25 0 43 25 q18 25 18 81 Z" /><glyph glyph-name="ydieresis" unicode="ÿ" d="M10 495 q0 11 91.5 11 q91.5 0 94.5 -10 l68 -230 l67 231 q4 8 65.5 8 q61.5 0 97.5 -2 q36 -2 32 -10 l-235 -669 q-1 -6 -54.5 -6 q-53.5 0 -99.5 3.5 q-46 3.5 -44 8.5 l87 210 l-170 455 ZM216 552 q0 -6 -69.5 -6 q-69.5 0 -69.5 5 l0 140 q0 9 69.5 9 q69.5 0 69.5 -5 l0 -143 ZM446 552 q0 -6 -69.5 -6 q-69.5 0 -69.5 5 l0 140 q0 9 69.5 9 q69.5 0 69.5 -5 l0 -143 Z" /><glyph glyph-name="dotlessi" unicode="&#x131;" d="M215 6 q0 -8 -88.5 -8 q-88.5 0 -88.5 7 l0 475 q0 6 88.5 6 q88.5 0 88.5 -5 l0 -475 Z" /><glyph glyph-name="Lslash" unicode="&#x141;" d="M68 26 l0 266 l-33 0 q-18 0 -26 29 q-4 15 -4 29 q0 14 4 29 q8 29 26 29 l33 0 l0 277 q0 16 50 22 q25 3 49 3 l53 -4 q50 -6 50 -21 l0 -277 l96 0 q18 0 26 -29 q4 -15 4 -29 q0 -14 -4 -29 q-8 -29 -26 -29 l-96 0 l0 -125 l152 0 q18 0 26 -41 q4 -23 4 -43.5 q0 -20.5 -4 -40.5 q-6 -42 -24 -42 l-332 0 q-16 0 -20 6 q-4 6 -4 20 Z" /><glyph glyph-name="lslash" unicode="&#x142;" d="M277 8 q0 -9 -102 -9 q-80 1 -80 8 l0 211 l-60 0 q-18 0 -26 29 q-4 15 -4 29 q0 14 4 29 q8 29 26 29 l60 0 l0 354 q0 15 97 15 q85 -3 85 -10 l0 -359 l63 0 q18 0 26 -29 q4 -15 4 -29 q0 -14 -4 -29 q-8 -29 -26 -29 l-63 0 l0 -210 Z" /><glyph glyph-name="OE" unicode="&#x152;" d="M735 424 q19 0 19 -70 q0 -21 -4.5 -49.5 q-4.5 -28.5 -16.5 -28.5 l-129 0 l0 -100 l186 0 q17 0 23 -44 q3 -20 3 -42 q0 -22 -6 -56 q-6 -34 -20 -34 l-349 0 q-42 -14 -96 -14 q-137 0 -226 93 q-89 93 -89 270.5 q0 177.5 90.5 269.5 q90.5 92 228.5 92 q48 0 91 -11 l351 0 q21 0 21 -89 q0 -89 -21 -89 l-187 0 l0 -98 l131 0 ZM350.5 517 q-48.5 0 -81.5 -44 q-33 -44 -33 -124 q0 -80 31.5 -123 q31.5 -43 82.5 -43 q51 0 82.5 43 q31.5 43 31.5 123.5 q0 80.5 -32.5 124 q-32.5 43.5 -81 43.5 Z" /><glyph glyph-name="oe" unicode="&#x153;" d="M88.5 59 q-62.5 69 -62.5 191 q0 122 62.5 191 q62.5 69 160 69 q97.5 0 156.5 -49 q62 49 151 49 q89 0 143.5 -51 q54.5 -51 54.5 -124 q0 -162 -186 -162 l-69 0 q0 -30 16.5 -41.5 q16.5 -11.5 48.5 -11.5 q70 0 133 32 q1 1 9 -14 q24 -43 24 -72.5 q0 -29.5 -19 -38.5 q-63 -37 -155 -37 q-92 0 -153 48 q-57 -48 -154.5 -48 q-97.5 0 -160 69 ZM257 343 q-56 0 -56 -92 q0 -92 56.5 -92 q56.5 0 56.5 91 q0 51 -17 72 q-17 21 -40 21 ZM586 316 q0 42 -41 42 q-19 0 -32.5 -11.5 q-13.5 -11.5 -13.5 -33.5 l0 -31 l54 0 q33 0 33 34 Z" /><glyph glyph-name="Scaron" unicode="&#x160;" d="M76 244 q19 -15 65.5 -41 q46.5 -26 89 -26 q42.5 0 42.5 33 q0 15 -12 26.5 q-12 11.5 -44 26.5 q-32 15 -48 23.5 q-16 8.5 -42.5 28 q-26.5 19.5 -40.5 40.5 q-40 57 -40 145 q0 88 65.5 148.5 q65.5 60.5 171.5 60.5 q72 0 133 -15.5 q61 -15.5 63 -40.5 q0 -3 0 -6 q0 -35 -22 -88.5 q-22 -53.5 -31 -59.5 q-64 33 -114.5 33 q-50.5 0 -50.5 -36 q0 -22 37 -39 q8 -4 23 -11 q15 -7 34.5 -16.5 q19.5 -9.5 42 -24 q22.5 -14.5 48.5 -38.5 q53 -50 53 -132 q0 -107 -59 -175 q-59 -68 -182 -70 q-60 0 -108.5 10 q-48.5 10 -84.5 39 q-36 29 -36 70 q0 41 15 81.5 q15 40.5 32 53.5 ZM392 919 q9 0 24 -22 q20 -30 20 -50 q0 -20 -6 -25 l-154 -84 q-7 -4 -11 -4 q-4 0 -11 4 l-154 84 q-6 5 -6 14 q0 31 17 57 q17 26 26 26 q2 0 128 -74 q125 74 127 74 Z" /><glyph glyph-name="scaron" unicode="&#x161;" d="M66 180 q81 -49 128 -49 q30 0 30 21 q0 15 -52 39 q-125 51 -125 167 q0 74 54 113 q54 39 129.5 39 q75.5 0 128 -16 q52.5 -16 52.5 -42 q0 -22 -21.5 -58 q-21.5 -36 -29.5 -39 q-43 24 -93 24 q-27 0 -27 -19 q0 -12 10.5 -20.5 q10.5 -8.5 38.5 -21 q28 -12.5 46.5 -22.5 q18.5 -10 41.5 -28 q48 -38 48 -99 q0 -80 -53 -129.5 q-53 -49.5 -160 -49.5 q-71 0 -129 24 q-58 24 -58 66 q0 28 13.5 59 q13.5 31 27.5 41 ZM352 709 q9 0 24 -22 q20 -30 20 -50 q0 -20 -6 -25 l-154 -84 q-7 -4 -11 -4 q-4 0 -11 4 l-154 84 q-6 5 -6 14 q0 31 17 57 q17 26 26 26 q2 0 128 -74 q125 74 127 74 Z" /><glyph glyph-name="Ydieresis" unicode="&#x178;" d="M398 674 q13 35 128 35 q29 0 68.5 -4 q39.5 -4 36.5 -10 l-208 -445 l0 -232 q0 -17 -55 -24 q-28 -4 -55 -4 q-27 0 -54 3 q-55 7 -55 25 l0 226 l-215 449 q-4 6 41 11.5 q45 5.5 76 5.5 q123 0 135 -36 l73 -218 l84 218 ZM262 752 q0 -6 -69.5 -6 q-69.5 0 -69.5 5 l0 140 q0 9 69.5 9 q69.5 0 69.5 -5 l0 -143 ZM492 752 q0 -6 -69.5 -6 q-69.5 0 -69.5 5 l0 140 q0 9 69.5 9 q69.5 0 69.5 -5 l0 -143 Z" /><glyph glyph-name="Zcaron" unicode="&#x17d;" d="M76 518 q-17 0 -24 46 q-3 19 -3 42 q0 23 5 48 q9 46 30 46 l389 0 q16 0 40.5 -65.5 q24.5 -65.5 24.5 -72.5 q0 -7 -1 -8 l-234 -355 l183 0 q1 0 2 0 q22 0 31 -48 q4 -23 4 -48 q0 -25 -6 -53 q-11 -50 -34 -50 l-389 0 q-9 0 -32.5 60.5 q-23.5 60.5 -23.5 75.5 q0 15 3 19 l234 363 l-199 0 ZM407 909 q9 0 24 -22 q20 -30 20 -50 q0 -20 -6 -25 l-154 -84 q-7 -4 -11 -4 q-4 0 -11 4 l-154 84 q-6 5 -6 14 q0 31 17 57 q17 26 26 26 q2 0 128 -74 q125 74 127 74 Z" /><glyph glyph-name="zcaron" unicode="&#x17e;" d="M43 340 q-7 0 -7 43 q0 117 19 117 l319 0 q7 0 31 -44 q24 -44 24 -49.5 q0 -5.5 -1 -6.5 l-194 -244 l174 12 q16 0 16 -71 q0 -27 -5 -62 q-5 -35 -17 -35 l-320 0 q-15 0 -36 50 q-21 50 -21 60.5 q0 10.5 2 12.5 l191 223 l-175 -6 ZM355 709 q9 0 24 -22 q20 -30 20 -50 q0 -20 -6 -25 l-154 -84 q-7 -4 -11 -4 q-4 0 -11 4 l-154 84 q-6 5 -6 14 q0 31 17 57 q17 26 26 26 q2 0 128 -74 q125 74 127 74 Z" /><glyph glyph-name="florin" unicode="&#x192;" d="M376 500 q11 0 11 -34 q0 -50 -17 -86 q-6 -14 -13 -14 l-74 0 l-38 -384 q-24 -177 -208 -177 q-53 0 -90 13 q-37 13 -37 39 q0 26 18 59 q18 33 27 46 q32 -21 79 -21 q40 0 45 52 l37 374 l-69 0 q-11 0 -11 31 q0 20 5 47 q10 55 20 55 l69 0 l3 22 q11 105 58.5 146 q47.5 41 127.5 41 q44 0 93.5 -12.5 q49.5 -12.5 49.5 -38.5 q0 -21 -16 -47.5 q-16 -26.5 -32 -43.5 q-16 -17 -16 -15 q-32 21 -68.5 21 q-36.5 0 -43.5 -52 l-3 -21 l93 0 Z" /><glyph glyph-name="circumflex" unicode="&#x2c6;" d="M116 524 q-9 0 -24 22 q-20 30 -20 50 q0 20 6 25 l154 84 q7 4 11 4 q4 0 11 -4 l154 -84 q6 -5 6 -14 q0 -31 -17 -57 q-17 -26 -26 -26 q-2 0 -128 74 q-125 -74 -127 -74 Z" /><glyph glyph-name="caron" unicode="&#x2c7;" d="M370 709 q9 0 24 -22 q20 -30 20 -50 q0 -20 -6 -25 l-154 -84 q-7 -4 -11 -4 q-4 0 -11 4 l-154 84 q-6 5 -6 14 q0 31 17 57 q17 26 26 26 q2 0 128 -74 q125 74 127 74 Z" /><glyph glyph-name="ring" unicode="&#x2da;" d="M138 555 q-26 26 -26 64 q0 38 26 64 q26 26 64 26 q38 0 64 -26 q26 -26 26 -64 q0 -38 -26 -64 q-26 -26 -64 -26 q-38 0 -64 26 ZM160.5 662.5 q-17.5 -17.5 -17.5 -42.5 q0 -25 17.5 -42.5 q17.5 -17.5 42.5 -17.5 q25 0 42.5 17.5 q17.5 17.5 17.5 42.5 q0 25 -17.5 42.5 q-17.5 17.5 -42.5 17.5 q-25 0 -42.5 -17.5 Z" /><glyph glyph-name="tilde" unicode="&#x2dc;" d="M74 553 q-19 5 -35.5 34 q-16.5 29 -16.5 38 q0 9 3 12 q63 63 130 63 q31 0 70 -18.5 q39 -18.5 60 -18.5 q37 1 69 39 q2 1 5 1 q12 0 33 -28 q21 -28 21 -38 q0 -29 -47 -61 q-32 -22 -61 -22 q-4 0 -7 0 q-38 0 -84 20 q-46 20 -56.5 20 q-10.5 0 -17.5 -2 q-7 -2 -12.5 -3.5 q-5.5 -1.5 -13 -6.5 q-7.5 -5 -11.5 -7.5 q-4 -2.5 -14 -10.5 q-10 -8 -15 -11 Z" /><glyph glyph-name="endash" unicode="&#x2013;" d="M392 190 l-315 0 q-18 0 -26 29 q-4 15 -4 29 q0 14 4 29 q8 29 26 29 l315 0 q18 0 26 -29 q4 -15 4 -29 q0 -14 -4 -29 q-8 -29 -26 -29 Z" /><glyph glyph-name="emdash" unicode="&#x2014;" d="M670 190 l-573 0 q-18 0 -26 29 q-4 15 -4 29 q0 14 4 29 q8 29 26 29 l573 0 q18 0 26 -29 q4 -15 4 -29 q0 -14 -4 -29 q-8 -29 -26 -29 Z" /><glyph glyph-name="quoteleft" unicode="&#x2018;" d="M89 469 l0 211 q0 19 26 26 q13 3 26.5 3 q13.5 0 34.5 -5.5 q21 -5.5 26 -23.5 l60 -211 q0 -18 -43 -26 q-21 -4 -43 -4 q-22 0 -44 4 q-43 8 -43 26 Z" /><glyph glyph-name="quoteright" unicode="&#x2019;" d="M154 444 q-14 -4 -28 -4 q-14 0 -28 4 q-28 8 -28 26 l0 211 q0 18 43 26 q21 4 43 4 q22 0 44 -4 q43 -8 43 -26 l-60 -211 q0 -18 -29 -26 Z" /><glyph glyph-name="quotesinglbase" unicode="&#x201a;" d="M120 148 q6 16 85 16 q79 0 79 -21 l-2 -85 l-58 -136 q-13 -29 -80.5 -29 q-67.5 0 -85.5 22 q-4 5 -4 9.5 q0 4.5 1 8.5 l61 124 l4 91 Z" /><glyph glyph-name="quotedblleft" unicode="&#x201c;" d="M89 469 l0 211 q0 19 26 26 q13 3 26.5 3 q13.5 0 34.5 -5.5 q21 -5.5 26 -23.5 l60 -211 q0 -18 -43 -26 q-21 -4 -43 -4 q-22 0 -44 4 q-43 8 -43 26 ZM319 469 l0 211 q0 19 26 26 q13 3 26.5 3 q13.5 0 34.5 -5.5 q21 -5.5 26 -23.5 l60 -211 q0 -18 -43 -26 q-21 -4 -43 -4 q-22 0 -44 4 q-43 8 -43 26 Z" /><glyph glyph-name="quotedblright" unicode="&#x201d;" d="M183 469 q-5 -18 -26 -23.5 q-21 -5.5 -34.5 -5.5 q-13.5 0 -26.5 3 q-26 7 -26 26 l0 211 q0 18 43 26 q21 4 43 4 q22 0 44 -4 q43 -8 43 -26 l-60 -211 ZM409 469 q-5 -18 -26 -23.5 q-21 -5.5 -34.5 -5.5 q-13.5 0 -26.5 3 q-26 7 -26 26 l0 211 q0 18 43 26 q21 4 43 4 q22 0 44 -4 q43 -8 43 -26 l-60 -211 Z" /><glyph glyph-name="quotedblbase" unicode="&#x201e;" d="M120 148 q6 16 85 16 q79 0 79 -21 l-2 -85 l-58 -136 q-13 -29 -80.5 -29 q-67.5 0 -85.5 22 q-4 5 -4 9.5 q0 4.5 1 8.5 l61 124 l4 91 ZM390 148 q6 16 85 16 q79 0 79 -21 l-2 -85 l-58 -136 q-13 -29 -80.5 -29 q-67.5 0 -85.5 22 q-4 5 -4 9.5 q0 4.5 1 8.5 l61 124 l4 91 Z" /><glyph glyph-name="dagger" unicode="&#x2020;" d="M298 406 l0 -456 q0 -18 -29 -26 q-15 -4 -29 -4 l-29 4 q-29 8 -29 26 l0 456 l-115 0 q-19 0 -26 29 q-3 13 -3 27.5 q0 14.5 4 30.5 q9 29 27 29 l113 0 l0 181 q0 18 29 26 q15 4 29 4 l29 -4 q29 -8 29 -26 l0 -181 l114 0 q19 0 26 -29 q3 -13 3 -27.5 q0 -14.5 -5 -30.5 q-8 -29 -26 -29 l-112 0 Z" /><glyph glyph-name="daggerdbl" unicode="&#x2021;" d="M410 116 l-112 0 l0 -166 q0 -18 -29 -26 q-15 -4 -29 -4 l-29 4 q-29 8 -29 26 l0 166 l-115 0 q-19 0 -26 29 q-3 13 -3 27.5 q0 14.5 4 30.5 q9 29 27 29 l113 0 l0 204 l-115 0 q-19 0 -26 29 q-3 13 -3 27.5 q0 14.5 4 30.5 q9 29 27 29 l113 0 l0 151 q0 18 29 26 q15 4 29 4 l29 -4 q29 -8 29 -26 l0 -151 l114 0 q19 0 26 -29 q3 -13 3 -27.5 q0 -14.5 -5 -30.5 q-8 -29 -26 -29 l-112 0 l0 -204 l114 0 q19 0 26 -29 q3 -13 3 -27.5 q0 -14.5 -5 -30.5 q-8 -29 -26 -29 Z" /><glyph glyph-name="bullet" unicode="&#x2022;" d="M111 197 q-28 28 -28 67 q0 39 28 67 q28 28 67 28 q39 0 67 -28 q28 -28 28 -67 q0 -39 -28 -67 q-28 -28 -67 -28 q-39 0 -67 28 Z" /><glyph glyph-name="ellipsis" unicode="&#x2026;" d="M247 -3 q0 -7 -94.5 -7 q-94.5 0 -94.5 6 l0 180 q0 9 94.5 9 q94.5 0 94.5 -5 l0 -183 ZM550 -3 q0 -7 -94.5 -7 q-94.5 0 -94.5 6 l0 180 q0 9 94.5 9 q94.5 0 94.5 -5 l0 -183 ZM853 -3 q0 -7 -94.5 -7 q-94.5 0 -94.5 6 l0 180 q0 9 94.5 9 q94.5 0 94.5 -5 l0 -183 Z" /><glyph glyph-name="perthousand" unicode="&#x2030;" d="M802 377 q65 0 108 -49 q43 -49 43 -143.5 q0 -94.5 -42.5 -143.5 q-42.5 -49 -107.5 -49 q-65 0 -103 38 q-38 -38 -102 -38 q-64 0 -107 47.5 q-43 47.5 -43 144 q0 96.5 42 145 q42 48.5 106.5 48.5 q64.5 0 102.5 -38 q38 38 103 38 ZM578 702 q9 8 19 8 q37 0 67 -37 q12 -15 12 -24.5 q0 -9.5 -4 -14.5 l-475 -636 q-9 -8 -19 -8 q-36 0 -66 38 q-13 15 -13 24 q0 9 4 14 l475 636 ZM186.5 711 q67.5 0 110.5 -49 q43 -49 43 -143.5 q0 -94.5 -42.5 -143.5 q-42.5 -49 -109.5 -49 q-67 0 -110 47.5 q-43 47.5 -43 144 q0 96.5 42 145 q42 48.5 109.5 48.5 ZM235 519 q0 65 -47 65 q-47 0 -47 -65 q0 -31 13 -47 q13 -16 34 -16 q21 0 34 16 q13 16 13 47 ZM601 250 q-47 0 -47 -65 q0 -31 13 -47 q13 -16 34 -16 q46 0 47 62 l0 7 q-2 29 -15 44 q-13 15 -32 15 ZM848 185 q0 65 -47 65 q-47 0 -47 -65 q0 -31 13 -47 q13 -16 34 -16 q21 0 34 16 q13 16 13 47 Z" /><glyph glyph-name="guilsinglleft" unicode="&#x2039;" d="M99 236 q-10 10 -10 21 q0 11 14 25 l168 197 q6 6 15.5 6 q9.5 0 30 -12 q20.5 -12 32 -31.5 q11.5 -19.5 11.5 -29 q0 -9.5 -7 -15.5 l-132 -142 l134 -144 q7 -6 7 -15.5 q0 -9.5 -11.5 -29 q-11.5 -19.5 -32 -31.5 q-20.5 -12 -30 -12 q-9.5 0 -15.5 6 l-174 207 Z" /><glyph glyph-name="guilsinglright" unicode="&#x203a;" d="M178 29 q-7 -7 -16.5 -7 q-9.5 0 -29.5 12 q-20 12 -31.5 32 q-11.5 20 -11.5 29.5 q0 9.5 7 15.5 l134 144 l-132 142 q-7 6 -7 15.5 q0 9.5 11.5 29 q11.5 19.5 31.5 31.5 q20 12 30 12 q10 0 16 -6 l168 -197 q14 -14 14 -25 q0 -11 -10 -21 l-174 -207 Z" /><glyph glyph-name="fraction" unicode="&#x2044;" d="M246 678 q5 11 19.5 11 q14.5 0 30.5 -7 q37 -17 48 -40 q4 -7 4 -13 q0 -6 -2 -10 l-328 -570 q-6 -10 -21 -10 q-15 0 -30 7 q-38 18 -49 40 q-3 6 -3 11.5 q0 5.5 3 10.5 l328 570 Z" /><glyph glyph-name="Euro" unicode="&#x20ac;" d="M532 634 q0 -20 -12 -57.5 q-12 -37.5 -27.5 -62.5 q-15.5 -25 -25.5 -25 q-3 0 -6 2 q-29 21 -96 21 q-89 0 -125 -70 l178 0 q14 0 20 -16 q2 -8 2 -16 q0 -8 -2 -16 q-6 -16 -20 -16 l-191 0 q0 -36 2 -46 l189 0 q14 0 19 -12 q5 -12 5 -20 q0 -8 -3 -16 q-6 -16 -21 -16 l-171 0 q50 -78 133 -78 q24 0 53 7.5 q29 7.5 37.5 14 q8.5 6.5 10.5 6.5 q8 0 22.5 -25 q14.5 -25 27.5 -62 q13 -37 13 -54 q0 -39 -56 -62 q-56 -23 -133 -23 q-128 0 -214.5 97 q-86.5 97 -86.5 262.5 q0 165.5 85.5 261 q85.5 95.5 217.5 95.5 q69 0 122 -20.5 q53 -20.5 53 -53.5 Z" /><glyph glyph-name="trademark" unicode="&#x2122;" d="M239 350 q0 -17 -59.5 -17 q-59.5 0 -59.5 17 l0 238 l-48 0 q-19 0 -19 55.5 q0 55.5 19 55.5 l213 0 q20 0 20 -55.5 q0 -55.5 -20 -55.5 l-46 0 l0 -238 ZM745 353 q0 -19 -58 -19 q-58 0 -60 18 l-8 158 l-41 -163 q-4 -13 -44 -13 q-40 0 -44 13 l-42 165 l-7 -161 q0 -18 -58 -18 q-58 0 -58 18 l16 329 q3 24 69 24 q71 0 78 -17 l46 -156 l40 151 q10 21 65 21 q83 0 90 -23 l16 -327 Z" /><glyph glyph-name="minus" unicode="&#x2212;" d="M492 190 l-395 0 q-18 0 -26 29 q-4 15 -4 29 q0 14 4 29 q8 29 26 29 l395 0 q18 0 26 -29 q4 -15 4 -29 q0 -14 -4 -29 q-8 -29 -26 -29 Z" /><glyph glyph-name="fi" unicode="&#xfb01;" d="M563 6 q0 -8 -91.5 -8 q-91.5 0 -91.5 7 l0 361 l-128 0 l0 -354 q0 -12 -83.5 -12 q-83.5 0 -83.5 12 l0 355 l-49 0 q-15 0 -15 66.5 q0 66.5 15 66.5 l49 0 l0 22 q0 105 42.5 146 q42.5 41 120.5 41 q50 0 77.5 -15.5 q27.5 -15.5 27.5 -37 q0 -21.5 -6 -45.5 q-11 -45 -18 -52 q-30 14 -53.5 14 q-23.5 0 -32 -11.5 q-8.5 -11.5 -8.5 -40.5 l0 -21 l290 0 q38 0 38 -27 l0 -467 ZM565 556 q0 -6 -92.5 -6 q-92.5 0 -92.5 8 l0 141 q0 10 92.5 10 q92.5 0 92.5 -6 l0 -147 Z" /><glyph glyph-name="fl" unicode="&#xfb02;" d="M563 6 q0 -8 -91.5 -8 q-91.5 0 -91.5 7 l0 361 l-129 0 l0 -354 q0 -12 -83.5 -12 q-83.5 0 -83.5 12 l0 355 l-49 0 q-15 0 -15 66.5 q0 66.5 15 66.5 l49 0 l0 22 q0 105 42.5 146 q42.5 41 120.5 41 q50 0 77.5 -15.5 q27.5 -15.5 27.5 -37 q0 -21.5 -6 -45.5 q-11 -45 -18 -52 q-30 14 -53.5 14 q-23.5 0 -32 -11.5 q-8.5 -11.5 -8.5 -40.5 l0 -21 l146 0 l0 199 q0 10 91.5 10 q91.5 0 91.5 -6 l0 -697 Z" /></font>
</defs>
</svg>
